<svg width="50" height="50" viewBox="0 0 50 50" fill="none" xmlns="http://www.w3.org/2000/svg">
<path d="M33.125 17.9688L20 26.0938C19.8437 26.2501 19.6875 26.5626 19.6875 26.7188L21.4062 32.3438C21.4062 32.5001 21.5625 32.5001 21.5625 32.3438L22.0313 28.5938C22.0313 28.4376 22.1875 28.2813 22.1875 28.2813L33.2812 18.4376C33.75 18.1251 33.4375 17.8126 33.125 17.9688Z" fill="white"/>
<path d="M0 0V50H50V0H0ZM38.125 15.4687L34.0625 35C33.9062 35.9375 32.8125 36.4062 32.0312 35.7812L25.7812 31.25L22.6562 34.5312C22.0312 35.1562 21.0938 34.8438 20.9375 34.0625L18.5938 26.875L12.5 25C11.7188 24.6875 11.7188 23.5938 12.5 23.2812L36.4062 13.9062C37.3438 13.75 38.2812 14.5312 38.125 15.4687Z" fill="white"/>
</svg>
