<svg width="176" height="64" viewBox="0 0 176 64" fill="none" xmlns="http://www.w3.org/2000/svg">
<g clip-path="url(#clip0)">
<path d="M112.067 24.2912C109.698 22.1595 106.242 21.0689 101.7 21.0689C98.7377 21.0689 95.6768 21.5646 92.5172 22.5561L88.9626 38.866H89.6538V41.3447H88.4196L84.6675 58.6955C84.2232 60.7777 85.803 62.7606 87.9259 62.7606C89.9994 62.7606 91.7766 61.323 92.221 59.2904L94.4919 48.7312C96.2198 49.3261 98.0465 49.6731 99.9719 49.6731C104.464 49.6731 108.167 48.1363 111.179 45.0131C114.141 41.89 115.622 37.9241 115.622 32.9667C115.671 29.3478 114.437 26.4229 112.067 24.2912ZM105.551 40.5515C103.971 42.4353 101.897 43.3772 99.3794 43.3772C98.1452 43.3772 97.0097 43.1293 95.9236 42.6832L99.1326 27.7614C99.9225 27.5631 100.712 27.4639 101.552 27.4639C103.428 27.4639 104.958 27.9597 106.143 29.0007C107.328 30.0418 107.92 31.6282 107.92 33.7598C107.92 36.3873 107.13 38.6677 105.551 40.5515ZM116.51 49.1278L125.397 8.22925H133.148L130.038 21.9612C129.593 24.0433 129.149 25.7289 128.606 27.0674H128.705C131.37 23.1014 134.629 21.1185 138.48 21.1185C140.602 21.1185 142.281 21.7134 143.515 22.9031C144.7 24.0929 145.342 25.828 145.342 28.1084C145.342 29.199 145.095 31.0333 144.552 33.7103L141.195 49.1278H133.444L136.801 34.1564C137.196 32.3222 137.393 31.0828 137.393 30.4384C137.393 28.7033 136.604 27.8605 135.024 27.8605C133.049 27.8605 131.173 29.1495 129.396 31.6777C128.162 33.512 127.223 35.9907 126.532 39.0643L124.311 49.1278H116.51ZM144.108 62.8102L152.846 22.6057C156.006 21.6142 159.116 21.1185 162.029 21.1185C166.57 21.1185 170.026 22.2091 172.396 24.3408C174.766 26.4725 175.951 29.3973 175.951 33.0162C175.951 37.9241 174.469 41.9395 171.507 45.0627C168.545 48.1859 164.793 49.7227 160.301 49.7227C158.375 49.7227 156.549 49.4252 154.821 48.7808L151.76 62.8102H144.108ZM156.252 42.6336C157.339 43.0798 158.474 43.3276 159.708 43.3276C162.226 43.3276 164.3 42.3857 165.879 40.5019C167.459 38.6181 168.249 36.3873 168.249 33.7103C168.249 31.5786 167.657 29.9922 166.472 28.9512C165.287 27.9101 163.756 27.4144 161.88 27.4144C161.041 27.4144 160.251 27.5135 159.461 27.7118L156.252 42.6336Z" fill="url(#paint0_linear)"/>
<path d="M51.1955 47.3927C51.0968 52.3501 47.9865 59.3896 45.9624 64H59.7363C60.3287 62.9589 62.6491 59.9349 63.7846 57.3075C61.2174 52.8954 57.6135 51.1107 51.1955 47.3927Z" fill="url(#paint1_linear)"/>
<path d="M17.526 46.0046L15.3538 64H27.1035C30.115 57.4562 35.8418 49.5244 42.4573 46.6987L42.4079 46.0046H17.526Z" fill="url(#paint2_linear)"/>
<path d="M94.5414 48.7803C93.6034 54.0847 91.6286 58.249 89.2589 57.8028C86.3955 57.2575 88.7652 49.6231 89.3576 47.0452C89.802 44.9631 92.8135 32.9167 93.4059 28.5541C93.6527 26.8686 94.097 11.9469 84.1245 7.93137C79.5826 6.09714 69.7088 4.70907 69.2151 4.70907C68.7215 4.4612 62.0567 0.89187 62.0567 0.89187C58.0578 -0.59535 54.7007 -0.496202 53.2196 3.56886L50.5537 15.1196C49.8132 18.094 52.5778 21.5642 56.6261 23.8942C52.2323 23.7455 45.6168 21.0685 46.4067 16.0615L48.6777 4.41162C48.7764 4.16375 48.8752 3.96546 48.9739 3.76716C47.246 3.71759 43.2471 3.32099 37.1748 3.76716C29.3251 4.36205 22.1666 8.22882 18.2171 11.4016C9.23198 18.6394 5.13436 27.1165 2.91276 39.9562L0 63.9995H11.7498C16.4398 53.9856 26.5111 47.2931 38.2609 47.0948C52.2323 46.8469 61.8592 54.0352 66.5492 63.9995H78.7927C78.5459 56.2164 74.3495 49.2265 69.1164 44.1204C67.7341 44.4674 66.3024 44.6657 64.9201 44.6657C61.9579 44.6657 59.6376 43.8725 57.959 42.2366C56.2805 40.6006 55.4412 38.4689 55.4412 35.7919C55.4412 32.4209 56.478 29.6943 58.6008 27.6122C60.7237 25.5301 63.439 24.4891 66.6973 24.4891C68.1784 24.4891 69.4126 24.6874 70.4494 25.0344L72.5722 15.417H78.0028L72.7203 39.4604C82.1498 42.0878 89.7032 40.3528 89.7032 40.3528C89.7032 40.3528 87.4323 41.9887 83.384 42.6332C82.3966 46.8965 82.446 49.3256 82.1004 50.912C81.1624 55.2249 83.2359 62.3636 87.7285 62.7602C94.492 63.3551 95.7262 51.8539 96.0718 49.1769L94.5414 48.7803ZM30.7568 29.3969C29.7201 29.3969 28.7327 29.9918 27.7947 31.2311C26.8567 32.4209 26.1161 34.4039 25.5237 37.18L24.0426 44.2195H18.5133L22.7097 24.9848H26.906L26.8073 28.7029H26.906C28.3871 25.9267 30.0656 24.4891 32.0404 24.4891C33.1265 24.4891 34.1139 24.8361 35.0519 25.5797L32.7316 29.9918C32.0898 29.6448 31.448 29.3969 30.7568 29.3969ZM53.1209 33.3628L50.7512 44.2195H45.2712L47.5916 33.7098C47.8384 32.4209 47.9865 31.5286 47.9865 31.0824C47.9865 29.8431 47.4435 29.2482 46.308 29.2482C44.975 29.2482 43.6914 29.9918 42.6053 31.479C41.618 32.8175 40.828 34.7013 40.3344 37.1304L38.7546 44.2195H33.324L37.5203 24.9848H41.7167L41.618 28.7029H41.7167C43.7408 25.9267 46.1105 24.4891 48.8258 24.4891C50.3562 24.4891 51.5411 24.8857 52.3804 25.7284C53.2196 26.5712 53.664 27.761 53.664 29.3969C53.664 30.1901 53.5158 31.479 53.1209 33.3628ZM67.1417 28.9507C67.9316 28.9507 68.7708 29.0995 69.5114 29.3969L67.2404 39.7083C66.5986 39.9562 65.9074 40.1049 65.0682 40.1049C63.7846 40.1049 62.7478 39.7083 62.0073 38.8655C61.2668 38.0228 60.8718 36.9321 60.8718 35.5441C60.8718 33.6107 61.4642 32.0243 62.6491 30.785C63.7846 29.5952 65.315 28.9507 67.1417 28.9507Z" fill="url(#paint3_linear)"/>
</g>
<defs>
<linearGradient id="paint0_linear" x1="175.983" y1="35.5101" x2="84.5928" y2="35.5101" gradientUnits="userSpaceOnUse">
<stop offset="0.334" stop-color="#2E3192"/>
<stop offset="0.3847" stop-color="#2A2D8E"/>
<stop offset="0.9963" stop-color="#00005C"/>
</linearGradient>
<linearGradient id="paint1_linear" x1="49.5115" y1="62.7939" x2="60.8158" y2="49.3777" gradientUnits="userSpaceOnUse">
<stop offset="0.1962" stop-color="#2E3192"/>
<stop offset="0.2556" stop-color="#2A2D8E"/>
<stop offset="0.9729" stop-color="#00005C"/>
</linearGradient>
<linearGradient id="paint2_linear" x1="31.5671" y1="71.8978" x2="27.2312" y2="45.0446" gradientUnits="userSpaceOnUse">
<stop offset="0.334" stop-color="#2E3192"/>
<stop offset="0.3847" stop-color="#2A2D8E"/>
<stop offset="0.9963" stop-color="#00005C"/>
</linearGradient>
<linearGradient id="paint3_linear" x1="-3.34479" y1="44.9294" x2="94.2106" y2="27.799" gradientUnits="userSpaceOnUse">
<stop stop-color="#009CCE"/>
<stop offset="1" stop-color="#00CCEA"/>
</linearGradient>
<clipPath id="clip0">
<rect width="176" height="64" fill="white"/>
</clipPath>
</defs>
</svg>
