<svg width="138" height="50" viewBox="0 0 138 50" fill="none" xmlns="http://www.w3.org/2000/svg">
<path d="M87.6913 18.9862C85.8255 17.3153 83.1601 16.5132 79.5619 16.5132C77.2297 16.5132 74.8308 16.9142 72.3653 17.7163L69.5667 30.4826H70.0998V32.421H69.1669L66.235 45.9894C65.9018 47.6604 67.1012 49.1977 68.7671 49.1977C70.3663 49.1977 71.7656 48.0614 72.1655 46.4573L73.9646 38.236C75.2973 38.7039 76.7632 38.9713 78.2292 38.9713C81.7608 38.9713 84.6261 37.7682 86.9583 35.3619C89.2905 32.9557 90.4233 29.8142 90.4233 25.9376C90.4899 22.9298 89.557 20.6572 87.6913 18.9862ZM82.5604 31.6858C81.2944 33.1562 79.6951 33.8915 77.6961 33.8915C76.7632 33.8915 75.8303 33.6909 74.9641 33.3567L77.4962 21.7267C78.0959 21.593 78.6956 21.5261 79.362 21.5261C80.8279 21.5261 82.0274 21.9272 82.9602 22.7293C83.8931 23.5313 84.3595 24.8013 84.3595 26.4054C84.4262 28.4775 83.8265 30.2153 82.5604 31.6858ZM91.1563 38.3697L98.1529 6.42041H104.217L101.818 17.1816C101.485 18.7857 101.085 20.1225 100.685 21.1251H100.752C102.817 18.0505 105.416 16.4463 108.415 16.4463C110.08 16.4463 111.413 16.9142 112.346 17.85C113.279 18.7857 113.745 20.1225 113.745 21.9272C113.745 22.7961 113.545 24.1997 113.146 26.2717L110.48 38.3029H104.35L106.949 26.6059C107.215 25.1355 107.415 24.1997 107.415 23.7318C107.415 22.3951 106.815 21.7267 105.549 21.7267C104.017 21.7267 102.551 22.7293 101.151 24.7344C100.219 26.2049 99.4189 28.0764 98.8858 30.4826L97.1534 38.3029H91.1563V38.3697ZM113.012 49.064L119.876 17.6495C122.341 16.8474 124.74 16.4463 127.072 16.4463C130.604 16.4463 133.336 17.2484 135.202 18.9194C137.067 20.5904 138 22.8629 138 25.737C138 29.6137 136.867 32.7552 134.535 35.1614C132.203 37.5676 129.271 38.7707 125.806 38.7707C124.274 38.7707 122.874 38.5034 121.542 38.0355L119.009 49.064H113.012ZM122.474 33.2899C123.341 33.6241 124.207 33.8246 125.206 33.8246C127.205 33.8246 128.805 33.0894 130.071 31.6189C131.337 30.1484 131.937 28.4106 131.937 26.3386C131.937 24.6676 131.47 23.4645 130.537 22.6624C129.604 21.8603 128.405 21.4593 126.939 21.4593C126.273 21.4593 125.673 21.5261 125.073 21.6598L122.474 33.2899Z" fill="white"/>
<path d="M40.0474 37.0332C39.9807 40.9099 37.5819 46.3907 35.916 50.0001H46.7108C47.1772 49.198 48.9764 46.7918 49.9092 44.7866C47.9102 41.3109 45.1116 39.9741 40.0474 37.0332Z" fill="white"/>
<path d="M13.7269 35.9639L12.061 50.0002H21.2566C23.6554 44.9204 28.1199 38.7043 33.2508 36.4986L33.1842 35.9639H13.7269Z" fill="white"/>
<path d="M73.9642 38.1025C73.2312 42.2466 71.6987 45.5217 69.8329 45.1875C67.634 44.7865 69.4331 38.8378 69.8995 36.7657C70.2327 35.1616 72.6315 25.7372 73.098 22.3284C73.2979 20.9916 73.6311 9.36153 65.8348 6.22007C62.2366 4.81644 54.5736 3.68017 54.1738 3.68017C53.774 3.47965 48.5765 0.672388 48.5765 0.672388C45.4447 -0.463884 42.7793 -0.397044 41.6465 2.74441L39.5808 11.7677C38.9811 14.1071 41.1801 16.7807 44.3119 18.5854C40.9135 18.4517 35.7161 16.3797 36.3158 12.4361L38.1149 3.34597C38.1815 3.21229 38.2482 3.07861 38.3148 2.87809C36.9821 2.87809 33.8503 2.5439 29.0526 2.87809C22.9222 3.34597 17.3249 6.35375 14.2598 8.82681C7.19651 14.5082 4.0647 21.1253 2.26557 31.1512L0 49.9331H9.19556C12.8605 42.1129 20.7899 36.8994 29.9189 36.6989C40.8469 36.4984 48.3766 42.1129 52.0415 49.9331H61.6368C61.4369 43.8507 58.1719 38.3699 54.1072 34.4263C53.041 34.6937 51.9082 34.8274 50.8421 34.8274C48.5099 34.8274 46.7107 34.159 45.3781 32.889C44.0454 31.6191 43.379 29.9481 43.379 27.8761C43.379 25.2693 44.1786 23.1305 45.8445 21.5263C47.5104 19.9222 49.6427 19.1201 52.1748 19.1201C53.3076 19.1201 54.3071 19.2538 55.1067 19.5211L56.7725 12.0351H61.0371L56.9058 30.817C64.2356 32.889 70.1661 31.4854 70.1661 31.4854C70.1661 31.4854 68.3669 32.7554 65.2351 33.2901C64.4355 36.6321 64.5021 38.5036 64.2356 39.7735C63.5026 43.1823 65.1018 48.73 68.6335 49.0642C73.8976 49.5321 74.8971 40.5087 75.1637 38.4367L73.9642 38.1025ZM24.055 22.9968C23.2554 22.9968 22.4558 23.4647 21.7228 24.4004C20.9898 25.3362 20.3901 26.8735 19.9237 29.0792L18.7243 34.56H14.4597L17.7248 19.5211H20.9898L20.9232 22.3952H20.9898C22.1226 20.1895 23.4553 19.1201 24.9879 19.1201C25.8542 19.1201 26.5871 19.3875 27.3201 19.989L25.521 23.4647C25.1212 23.1305 24.5881 22.9968 24.055 22.9968ZM41.5799 26.0714L39.7141 34.56H35.4495L37.3153 26.3388C37.5152 25.3362 37.6485 24.6678 37.6485 24.3336C37.6485 23.3978 37.2486 22.93 36.3824 22.93C35.3162 22.93 34.3834 23.5315 33.4505 24.6678C32.6509 25.7372 32.0512 27.2077 31.6514 29.0792L30.3853 34.6269H26.1207L29.3858 19.588H32.6509L32.5842 22.4621H32.6509C34.2501 20.2564 36.1159 19.1869 38.2482 19.1869C39.4476 19.1869 40.3805 19.5211 41.0468 20.1895C41.7132 20.8579 42.0463 21.7937 42.0463 23.0636C41.9797 23.5983 41.8464 24.6009 41.5799 26.0714ZM52.5079 22.6626C53.1743 22.6626 53.774 22.7963 54.3737 22.9968L52.5746 31.0844C52.1081 31.2849 51.5084 31.4186 50.8421 31.4186C49.8426 31.4186 49.0429 31.0844 48.4432 30.416C47.8435 29.7476 47.577 28.8787 47.577 27.8092C47.577 26.2719 48.0434 25.0688 48.9763 24.0662C49.9092 23.1305 51.1086 22.6626 52.5079 22.6626Z" fill="url(#paint0_linear)"/>
<defs>
<linearGradient id="paint0_linear" x1="-2.60108" y1="35.11" x2="73.7008" y2="21.6971" gradientUnits="userSpaceOnUse">
<stop stop-color="#2697C4"/>
<stop offset="1" stop-color="#39C3DD"/>
</linearGradient>
</defs>
</svg>
