<svg width="957" height="939" viewBox="0 0 957 939" fill="none" xmlns="http://www.w3.org/2000/svg">
<path d="M718 628.702C753.216 628.702 781.798 657.284 781.798 692.5C781.798 727.716 753.216 756.298 718 756.298C682.784 756.298 654.202 727.716 654.202 692.5C654.202 657.284 682.784 628.702 718 628.702ZM718 586C659.136 586 611.5 633.636 611.5 692.5C611.5 751.364 659.136 799 718 799C776.864 799 824.5 751.364 824.5 692.5C824.5 633.806 776.864 586 718 586Z" fill="#FFE040"/>
<rect x="653" y="398.355" width="317.286" height="51.3577" rx="25.6788" transform="rotate(-45 653 398.355)" fill="url(#paint0_linear)"/>
<rect x="473" y="476.822" width="586.839" height="53.7243" rx="26.8621" transform="rotate(-45 473 476.822)" fill="#FFE040"/>
<path d="M14.563 61.4491C199.5 31.7909 640.906 -39.0143 710.779 113.617C731.204 158.211 720.736 223.654 697.757 267.44C658.991 341.266 576.565 368.967 580.438 376.966C586.14 388.753 743.332 280.205 862.056 332.628C910.056 353.818 965.418 407.39 955.928 447.346C924.865 577.851 225.755 461.09 178.904 622.061C156.351 699.59 303.926 777.16 272.777 846.306C242.734 912.984 69.0739 921.75 -58.3734 861.965C-179.948 804.904 -234.246 697.249 -277.396 611.636C-326.077 515.3 -422.034 324.926 -342.672 194.464C-328.374 170.891 -284.034 109.362 14.563 61.4491Z" fill="url(#paint1_linear)"/>
<path d="M279.961 377.456L279.754 377.377C279.27 377.21 278.837 376.921 278.496 376.538C278.156 376.156 277.92 375.691 277.811 375.19L224.064 110.25C224.031 109.985 224.031 109.717 224.064 109.452V109.357C224.024 108.737 224.178 108.12 224.503 107.591C224.828 107.062 225.309 106.647 225.88 106.404L367.781 47.2074C368.161 47.0418 368.57 46.9563 368.984 46.9563C369.398 46.9563 369.807 47.0418 370.187 47.2074L506.513 110.905C506.841 111.055 507.134 111.272 507.373 111.543L507.532 111.703L574.772 120.465C574.911 120.489 575.05 120.521 575.186 120.561H575.297C576.005 120.626 576.666 120.943 577.161 121.454C577.356 121.689 577.522 121.946 577.655 122.22L577.735 122.364L577.878 122.46L659.231 176.964C659.841 177.378 660.278 178.003 660.457 178.72L669.187 213.673L669.282 213.8L702.735 252.201C703.032 252.538 703.248 252.94 703.367 253.374C703.486 253.808 703.504 254.264 703.42 254.706L703.229 255.792V255.903L718.234 350.42V350.5V350.659V350.755L729.608 379.483L729.815 379.595C730.499 379.972 731.008 380.602 731.233 381.351L768.684 508.49C768.875 509.136 768.841 509.828 768.588 510.453L733.224 597.899L845.672 665.602L845.927 665.523H846.118L934.241 647.663C934.872 647.55 935.524 647.644 936.098 647.931C936.672 648.219 937.138 648.685 937.427 649.259C937.722 649.842 937.818 650.506 937.7 651.149C937.582 651.792 937.256 652.378 936.774 652.818L889.845 695.783C889.445 696.441 888.805 696.916 888.061 697.108L812.904 715.398C812.573 715.527 812.224 715.602 811.869 715.622H811.566C811.212 715.602 810.862 715.527 810.531 715.398H810.451L698.784 688.729L652.349 747.957V748.037C652.085 748.675 651.606 749.2 650.995 749.521C650.584 749.727 650.133 749.842 649.673 749.856H649.338L548.806 748.659H548.663C548.337 748.843 547.981 748.967 547.612 749.026H547.197C546.63 749.023 546.075 748.858 545.598 748.55C545.121 748.242 544.742 747.804 544.505 747.287V747.159L544.394 747.063L438.828 660.288C438.224 659.789 437.841 659.072 437.76 658.293C437.653 658.021 437.583 657.737 437.553 657.447V657.335L417.546 582.737C417.429 582.286 417.417 581.814 417.511 581.357C417.605 580.901 417.802 580.472 418.087 580.103L454.726 533.994C455.003 533.644 455.357 533.361 455.76 533.167C456.163 532.974 456.604 532.874 457.051 532.877C457.237 532.861 457.423 532.861 457.609 532.877L540.682 542.677H540.794L541.287 542.581C541.898 542.541 542.507 542.687 543.033 543C543.559 543.314 543.978 543.78 544.234 544.337L564.832 590.222C565.059 590.717 565.144 591.265 565.08 591.806C565.015 592.347 564.802 592.859 564.465 593.286C564.188 593.644 563.833 593.934 563.427 594.133C563.021 594.332 562.575 594.436 562.123 594.436C561.943 594.452 561.762 594.452 561.582 594.436L532.144 588.993L531.953 589.089L492.128 609.598L555.736 680.876L556.134 680.733L646.853 649.275L646.057 648.557L573.577 582.769C573.248 582.469 572.992 582.097 572.828 581.683C572.812 581.631 572.784 581.582 572.749 581.54L532.176 489.401V489.274V489.178V489.098L457.896 399.896L457.418 400.631L378.757 522.264C378.578 522.739 378.282 523.162 377.897 523.492C377.622 523.801 377.286 524.049 376.91 524.219C376.534 524.39 376.127 524.479 375.714 524.482C375.367 524.48 375.023 524.42 374.695 524.306C374.16 524.108 373.694 523.761 373.349 523.305C373.005 522.85 372.798 522.306 372.751 521.737V521.593L279.961 377.456ZM230.961 114.288L281.825 364.864L282.143 366.46L415.411 145.778L414.503 145.618L230.77 113.315L230.961 114.288ZM358.685 251.387L546.815 233.623L460.476 174.682L421.114 148.028L358.685 251.387ZM489.898 116.523L269.814 112.884L269.702 114.145L418.342 140.271H418.502H418.629L489.898 116.523ZM368.833 53.2564L241.395 106.436L491.587 110.586L368.833 53.2564ZM505.828 117.576H505.685L455.697 134.159L455.984 135.388L550.813 123.449L505.828 117.576ZM428.41 145.554L463.933 169.782L553.283 230.287L553.442 229.314L571.395 127.168L428.41 145.554ZM471.914 377.377L559.049 302.459L557.456 280.275L554.175 245.386L471.914 377.377ZM575.759 136.728L559.097 231.117L592.693 216.912L592.581 216.402L575.759 136.728ZM616.38 538.032L653.13 559.898L655.583 515.576L602.585 504.739L616.38 538.032ZM595.671 503.287L548.328 493.599L608.335 534.361L595.671 503.287ZM661.493 518.992L654.532 645.205L725.657 598.107L661.493 518.992ZM661.493 504.627L722.503 387.91L653.05 401.461L661.493 504.627ZM655.774 507.82L643.731 360.89L579.519 463.035L612.27 482.395L655.774 507.82ZM641.915 352.559L641.342 352.239L566.233 310.232L577.607 454.816L641.915 352.559ZM638.729 245.625L659.597 218.349L604.003 220.679L638.729 245.625ZM637.869 295.485L654.691 318.611L640.482 266.23L637.869 295.485ZM595.831 221.94L581.86 227.877L591.625 226.568C592.167 226.498 592.717 226.575 593.218 226.792L615.679 236.368L595.831 221.94ZM593.011 233.208L566.695 301.103L567.731 300.991C577.034 300.049 596.85 298.134 626.671 295.325L628.264 295.181L596.994 269.039C596.605 268.712 596.305 268.292 596.124 267.817C595.943 267.342 595.886 266.829 595.958 266.325C596.022 265.87 596.192 265.436 596.455 265.058C596.718 264.681 597.066 264.372 597.471 264.155L620.713 253.797C621.099 253.623 621.517 253.533 621.939 253.533C622.362 253.533 622.78 253.623 623.166 253.797C623.544 253.979 623.881 254.238 624.155 254.556C624.429 254.875 624.634 255.246 624.759 255.648L632.915 282.78L635.814 251.434L593.011 233.208ZM618.578 274.162C618.725 273.74 618.965 273.356 619.279 273.038C619.593 272.721 619.974 272.477 620.394 272.326L623.389 271.273L620.203 260.5L604.433 267.522L622.672 282.78L618.913 276.731C618.684 276.376 618.532 275.976 618.469 275.558C618.406 275.14 618.432 274.713 618.546 274.305L618.578 274.162ZM630.095 301.007H629.554C611.824 302.683 587.914 304.949 573.991 306.322L571.984 306.529L641.055 345.153L630.095 301.007ZM586.177 234.293L560.483 236.911L563.414 279.652L564.433 290.425L586.177 234.293ZM598.427 214.822L658.578 212.3L581.478 135.068L598.427 214.822ZM654.946 181.305L603.174 146.624L602.378 147.597L661.318 206.65L654.946 181.305ZM642.823 250.158L642.616 250.413L664.695 332.576C664.875 333.251 664.815 333.968 664.524 334.603C664.233 335.239 663.73 335.752 663.102 336.056C662.698 336.246 662.258 336.345 661.811 336.343C661.342 336.344 660.879 336.233 660.461 336.019C660.043 335.805 659.681 335.495 659.406 335.114L637.2 304.614L648.446 349.941V350.021C648.713 350.434 648.877 350.904 648.924 351.393L652.11 390.097L678.713 355.272L663.197 223.664L642.823 250.158ZM661.7 387.416L702.782 357.57L682.791 359.693L661.7 387.416ZM696.49 254.164L669.075 222.706L682.408 335.832L686.2 315.339L696.681 254.387L696.49 254.164ZM699.979 273.444L692.014 316.297L685.642 353.372L712.165 350.611L699.979 273.444ZM714.316 356.58L663.771 393.289L724.16 381.51L714.316 356.58ZM725.339 395.3L664.026 512.624L726.406 587.477L725.339 395.3ZM762.885 509.288V509.08L731.679 403.488L732.874 583.503L762.885 509.288ZM887.137 690.516L925.161 655.707L854.815 669.959L884.97 689.208L887.137 690.516ZM813.303 709.333L879.889 693.134L740.52 609.231L792.323 680.701L813.303 709.333ZM701.301 683.222L804.557 707.961L787.449 684.34L730.723 606.932L700.457 683.095L701.301 683.222ZM724.367 607.044L658.386 650.903L695.471 679.743L724.367 607.044ZM693.32 686.478L656.156 657.255L653.114 737.647L693.32 686.478ZM423.822 582.737L439.752 641.933L452.766 546.332L423.822 582.737ZM444.849 648.573L477.346 614.641L483.112 608.417L482.969 608.05L458.565 547.72L444.849 648.573ZM557.153 587.541L542.387 554.647L534.74 583.375L557.153 587.541ZM537.783 548.454L469.158 540.362L528.942 580.933L537.783 548.454ZM525.39 585.817L463.821 543.938L488.815 604.586L525.39 585.817ZM485.964 614.163L481.647 618.679L445.168 657.925L539.344 735.333L529.261 712.222L485.964 614.163ZM497.72 624.84L534.693 709.716L545.843 734.949L548.089 717.904L551.578 685.106L497.72 624.84ZM553.983 718.542L551.403 742.85L639.446 743.903L557.727 689.798L553.983 718.542ZM561.948 685.026L563.016 685.744L646.917 741.605L647.57 724.512L650.199 654.494L649.323 654.797L561.948 685.026ZM649.163 630.665L652.7 566.633L620.84 547.72L649.163 630.665ZM646.328 640.8L614.994 548.885L579.949 580.646L646.328 640.8ZM576.237 575.044L608.686 541.879L608.065 541.464L541.718 496.408L576.237 575.044ZM536.413 485.108H536.62L641.246 506.527L609.02 487.47L573.641 466.722C573.396 466.576 573.176 466.393 572.988 466.179L470.034 405.355L536.413 485.108ZM571.761 457.752L571.665 456.539L560.1 309.45L559.145 310.28L463.662 393.911L571.761 457.752ZM458.23 387.926L550.957 239.257L412.91 252.28L458.23 387.926ZM453.786 394.677V394.438C453.747 394.152 453.747 393.862 453.786 393.576V393.417V393.273L410.919 265.033L379.952 508.825L453.786 394.677ZM376.049 492.45L406.443 252.887L358.064 257.451V258.074L376.049 492.45ZM352.409 261.745L351.39 263.437L284.74 373.802L284.947 374.137L371.27 508.825L352.409 261.745Z" fill="url(#paint2_linear)"/>
<path d="M729.566 729.067L715 745.035V736.873L725.842 725L729.566 729.067Z" fill="white"/>
<path d="M751.856 729.067L715 769.412V761.25L748.132 725L751.856 729.067Z" fill="white"/>
<path d="M774.119 729.067L715 793.789V785.627L770.395 725L774.119 729.067Z" fill="white"/>
<path d="M796.409 729.067L715 818.139V809.976L792.685 725L796.409 729.067Z" fill="white"/>
<path d="M818.672 729.067L715 842.543V834.381L814.948 725L818.672 729.067Z" fill="white"/>
<path d="M735.939 844L732.242 839.933L837.238 725L840.935 729.067L735.939 844Z" fill="white"/>
<path d="M758.201 844L754.477 839.933L859.501 725L863.198 729.067L758.201 844Z" fill="white"/>
<path d="M780.492 844L776.767 839.933L881.791 725L885.488 729.067L780.492 844Z" fill="white"/>
<path d="M802.782 844L799.058 839.933L904.054 725L907.751 729.067L802.782 844Z" fill="white"/>
<path d="M825.045 844L821.321 839.933L926.344 725L930.041 729.067L825.045 844Z" fill="white"/>
<path d="M847.308 844L843.583 839.933L936.276 738.521L940 742.589L847.308 844Z" fill="white"/>
<path d="M869.598 844L865.874 839.933L936.276 762.871L940 766.939L869.598 844Z" fill="white"/>
<path d="M891.86 844L888.136 839.933L936.276 787.248L940 791.316L891.86 844Z" fill="white"/>
<path d="M914.123 844L910.427 839.933L936.276 811.625L940 815.693L914.123 844Z" fill="white"/>
<path d="M936.414 844L932.717 839.933L936.276 836.03L940 840.097L936.414 844Z" fill="white"/>
<path d="M190.186 600.767L184.084 594.716L273.683 505.299L279.785 511.391L190.186 600.767Z" fill="#FFE440"/>
<path d="M12.6858 -1.01635e-05L-92.0396 104.589L-85.9643 110.653L18.7611 6.06385L12.6858 -1.01635e-05Z" fill="#FFE440"/>
<path d="M46.2951 2.98922L-40.1084 89.2556L-34.034 95.3203L52.3695 9.05394L46.2951 2.98922Z" fill="#FFE440"/>
<path d="M6.01157 91.8057L-0.0900879 85.7137L76.9436 8.84229L83.0052 14.8942L6.01157 91.8057Z" fill="#FFE440"/>
<path d="M105.23 17.101L34.0669 88.0905L40.1671 94.1861L111.33 23.1967L105.23 17.101Z" fill="#FFE440"/>
<path d="M70.361 100.503L64.2593 94.4105L131.418 27.3585L137.52 33.4505L70.361 100.503Z" fill="#FFE440"/>
<path d="M97.4972 109.882L91.3955 103.83L155.865 39.4228L161.966 45.5148L97.4972 109.882Z" fill="#FFE440"/>
<path d="M122.065 121.785L115.963 115.733L178.666 53.1295L184.728 59.2215L122.065 121.785Z" fill="#FFE440"/>
<path d="M144.384 135.973L138.322 129.921L199.861 68.4396L205.962 74.5316L144.384 135.973Z" fill="#FFE440"/>
<path d="M219.505 85.2195L158.486 146.159L164.562 152.223L225.58 91.2833L219.505 85.2195Z" fill="#FFE440"/>
<path d="M237.808 103.501L176.781 164.432L182.855 170.496L243.883 109.566L237.808 103.501Z" fill="#FFE440"/>
<path d="M199.178 190.68L193.077 184.629L254.615 123.147L260.717 129.239L199.178 190.68Z" fill="#FFE440"/>
<path d="M269.932 144.353L207.258 206.927L213.332 212.992L276.006 150.418L269.932 144.353Z" fill="#FFE440"/>
<path d="M225.311 237.533L219.249 231.481L283.718 167.074L289.82 173.166L225.311 237.533Z" fill="#FFE440"/>
<path d="M234.745 264.586L228.684 258.494L295.842 191.442L301.904 197.534L234.745 264.586Z" fill="#FFE440"/>
<path d="M306.101 217.625L234.988 288.665L241.093 294.756L312.205 223.717L306.101 217.625Z" fill="#FFE440"/>
<path d="M314.38 245.868L237.372 322.754L243.446 328.819L320.454 251.933L314.38 245.868Z" fill="#FFE440"/>
<path d="M1.23012 558.474L-75.7671 635.371L-69.6919 641.435L7.30534 564.538L1.23012 558.474Z" fill="#FFE440"/>
<path d="M239.924 368.791L233.822 362.74L320.249 276.53L326.311 282.582L239.924 368.791Z" fill="#FFE440"/>
<path d="M-39.0287 647.3L-45.1304 641.248L41.2967 554.958L47.3583 561.05L-39.0287 647.3Z" fill="#FFE440"/>
<path d="M224.589 420.573L218.527 414.521L323.219 309.995L329.281 316.087L224.589 420.573Z" fill="#FFE440"/>
<path d="M-5.42861 650.265L-11.5303 644.214L93.1617 539.688L99.2635 545.74L-5.42861 650.265Z" fill="#FFE440"/>
<path d="M31.7838 649.544L25.6821 643.452L322.457 347.149L328.558 353.241L31.7838 649.544Z" fill="#FFE440"/>
<path d="M74.4957 643.412L68.394 637.32L316.315 389.792L322.417 395.884L74.4957 643.412Z" fill="#FFE440"/>
<path d="M300.195 442.292L120.995 621.308L127.071 627.371L306.271 448.355L300.195 442.292Z" fill="#FFE440"/>
<path d="M773.045 412.25L789.582 451.866L815.662 417.354L773.045 412.25Z" fill="white"/>
<path d="M177.457 783.981L69.235 927.192L0.614014 762.798L177.457 783.981Z" stroke="white" stroke-width="11"/>
<path d="M315.925 676.489L349.519 735.303L383.644 676.197L315.925 676.489Z" fill="url(#paint3_linear)"/>
<path d="M353.075 820.612L419.872 831.831L395.712 768L353.075 820.612Z" fill="#FFE440"/>
<defs>
<linearGradient id="paint0_linear" x1="652.969" y1="424.081" x2="970.5" y2="424.081" gradientUnits="userSpaceOnUse">
<stop stop-color="#2697C4"/>
<stop offset="1" stop-color="#39C3DD"/>
</linearGradient>
<linearGradient id="paint1_linear" x1="85.5" y1="1070.5" x2="961.962" y2="243.692" gradientUnits="userSpaceOnUse">
<stop offset="0.334" stop-color="#2E3192"/>
<stop offset="0.3847" stop-color="#2A2D8E"/>
<stop offset="0.9963" stop-color="#00005C"/>
</linearGradient>
<linearGradient id="paint2_linear" x1="938" y1="398.492" x2="178.17" y2="398.492" gradientUnits="userSpaceOnUse">
<stop stop-color="#2596C3"/>
<stop offset="1" stop-color="#38C2DC"/>
</linearGradient>
<linearGradient id="paint3_linear" x1="315.882" y1="676.552" x2="366.584" y2="705.824" gradientUnits="userSpaceOnUse">
<stop stop-color="#00CCEA"/>
<stop offset="1" stop-color="#39C3DD"/>
</linearGradient>
</defs>
</svg>
