<svg width="1256" height="920" viewBox="0 0 1256 920" fill="none" xmlns="http://www.w3.org/2000/svg">
<path d="M641.5 585L353.923 872.027C345.25 880.658 331.179 880.658 322.505 872.027C313.832 863.396 313.832 849.395 322.505 840.764L578.664 585H641.5Z" fill="url(#paint0_linear)"/>
<path d="M629.5 520L341.923 807.027C333.25 815.658 319.179 815.658 310.505 807.027C301.832 798.396 301.832 784.395 310.505 775.764L566.664 520H629.5Z" fill="#FFE440"/>
<path d="M631.291 3.0041e-05C694.761 35.9682 642.286 81.428 569.32 59.947C496.354 38.466 417.89 103.605 406.895 162.356C395.9 221.108 484.506 172.847 475.863 209.315C467.221 245.783 399.38 286.651 329.858 350.627C256.037 418.561 180.309 488.249 182.029 565.125C184.384 670.545 332.138 783.021 467.221 781.49C610.153 779.866 625.135 716.453 639.287 781.49C653.439 846.528 410.687 895.664 647.783 918.188C884.879 940.712 1126.6 747.891 1256 635.938C1256 387.158 1256 179.841 1256 7.17303e-06C1109.07 7.17303e-06 806.209 -1.95063e-05 631.291 3.0041e-05Z" fill="url(#paint1_linear)"/>
<path d="M765 -10L458.607 296.075C434.682 319.975 395.869 319.975 371.944 296.075C348.019 272.174 348.019 233.401 371.944 209.501L591.673 -10H765Z" fill="#FFE440"/>
<path fill-rule="evenodd" clip-rule="evenodd" d="M426.517 240.373C427.554 240.348 428.532 240.86 429.101 241.728L469.961 304.072C470.474 304.855 470.592 305.832 470.28 306.715C469.969 307.597 469.263 308.284 468.373 308.571L372.921 339.365C371.737 339.747 370.439 339.358 369.66 338.388C368.881 337.417 368.783 336.067 369.412 334.993L424.003 241.856C424.528 240.96 425.479 240.399 426.517 240.373ZM426.734 249.062L378.567 331.239L462.785 304.069L426.734 249.062Z" fill="url(#paint2_linear)"/>
<path fill-rule="evenodd" clip-rule="evenodd" d="M530.308 194.573C531.182 195.208 531.647 196.263 531.526 197.337L526.871 238.521C526.706 239.978 525.513 241.102 524.05 241.18L426.751 246.368C425.311 246.445 424.02 245.487 423.677 244.086C423.334 242.685 424.036 241.239 425.349 240.642L527.303 194.269C528.286 193.822 529.434 193.938 530.308 194.573ZM442.282 239.532L521.194 235.324L524.969 201.922L442.282 239.532Z" fill="url(#paint3_linear)"/>
<path fill-rule="evenodd" clip-rule="evenodd" d="M525.807 195.774C526.484 194.262 528.258 193.585 529.771 194.262L649.165 247.697C650.677 248.374 651.355 250.149 650.678 251.661C650.001 253.173 648.226 253.85 646.714 253.174L527.32 199.738C525.807 199.061 525.13 197.287 525.807 195.774Z" fill="url(#paint4_linear)"/>
<path fill-rule="evenodd" clip-rule="evenodd" d="M607.902 231.208C608.039 232.859 606.811 234.309 605.16 234.446L524.153 241.174C522.502 241.311 521.052 240.084 520.915 238.433C520.778 236.782 522.005 235.332 523.656 235.195L604.664 228.466C606.315 228.329 607.764 229.557 607.902 231.208Z" fill="url(#paint5_linear)"/>
<path fill-rule="evenodd" clip-rule="evenodd" d="M520.921 237.876C521.091 236.228 522.566 235.03 524.214 235.201L646.023 247.815C647.671 247.985 648.869 249.46 648.698 251.108C648.527 252.756 647.053 253.953 645.405 253.783L523.596 241.169C521.948 240.998 520.75 239.524 520.921 237.876Z" fill="url(#paint6_linear)"/>
<path fill-rule="evenodd" clip-rule="evenodd" d="M521.399 236.513C522.323 235.137 524.186 234.77 525.562 235.694L573.113 267.607C574.062 268.243 574.567 269.364 574.415 270.496C574.263 271.629 573.481 272.577 572.398 272.941L467.666 308.182C466.096 308.71 464.395 307.866 463.866 306.295C463.338 304.725 464.182 303.023 465.753 302.495L564.714 269.196L522.218 240.676C520.843 239.752 520.476 237.889 521.399 236.513Z" fill="url(#paint7_linear)"/>
<path fill-rule="evenodd" clip-rule="evenodd" d="M468.601 302.945C470.131 303.58 470.857 305.335 470.223 306.865L418.22 432.279C417.764 433.381 416.698 434.107 415.505 434.129C414.313 434.152 413.221 433.466 412.723 432.382L369.274 337.762C368.582 336.256 369.242 334.475 370.748 333.784C372.254 333.092 374.035 333.753 374.726 335.258L415.309 423.636L464.68 304.567C465.315 303.037 467.07 302.31 468.601 302.945Z" fill="url(#paint8_linear)"/>
<path fill-rule="evenodd" clip-rule="evenodd" d="M572.961 268.495C574.152 269.647 574.182 271.547 573.029 272.737L417.604 433.217C416.452 434.407 414.552 434.438 413.362 433.285C412.172 432.132 412.142 430.233 413.294 429.043L568.719 268.563C569.872 267.373 571.771 267.342 572.961 268.495Z" fill="url(#paint9_linear)"/>
<path fill-rule="evenodd" clip-rule="evenodd" d="M579.831 364.686C580.677 364.644 581.501 364.961 582.1 365.56L600.661 384.103C601.129 384.571 601.43 385.18 601.515 385.837L604.861 411.442C604.961 412.205 604.764 412.976 604.311 413.598L570.976 459.345L559.93 547.254C559.803 548.265 559.172 549.142 558.254 549.583C557.336 550.025 556.256 549.97 555.387 549.439L472.94 498.982C472.2 498.53 471.693 497.779 471.548 496.924C471.403 496.069 471.636 495.193 472.185 494.522L577.659 365.781C578.196 365.126 578.985 364.728 579.831 364.686ZM580.202 372.145L479.009 495.662L554.556 541.895L565.119 457.83C565.182 457.326 565.372 456.847 565.671 456.437L598.756 411.032L595.698 387.626L580.202 372.145Z" fill="url(#paint10_linear)"/>
<path fill-rule="evenodd" clip-rule="evenodd" d="M566.608 484.184C566.81 485.829 565.641 487.326 563.997 487.528L476.546 498.297C474.901 498.499 473.404 497.33 473.202 495.686C472.999 494.041 474.168 492.544 475.812 492.342L563.264 481.573C564.908 481.371 566.405 482.54 566.608 484.184Z" fill="url(#paint11_linear)"/>
<path fill-rule="evenodd" clip-rule="evenodd" d="M414.006 429.456C415.235 428.345 417.132 428.442 418.243 429.671L476.733 494.412C477.843 495.642 477.747 497.539 476.518 498.65C475.288 499.76 473.391 499.664 472.28 498.435L413.791 433.693C412.68 432.464 412.776 430.567 414.006 429.456Z" fill="url(#paint12_linear)"/>
<path fill-rule="evenodd" clip-rule="evenodd" d="M580.914 366.768C581.515 368.312 580.75 370.051 579.206 370.652L417.105 433.737C415.561 434.338 413.822 433.573 413.221 432.029C412.62 430.485 413.385 428.746 414.929 428.145L577.03 365.061C578.574 364.46 580.313 365.224 580.914 366.768Z" fill="url(#paint13_linear)"/>
<path fill-rule="evenodd" clip-rule="evenodd" d="M572.845 269.037C574.249 269.917 574.674 271.768 573.795 273.172L514.549 367.777C514.324 368.136 514.026 368.444 513.673 368.679L417.669 432.868C416.292 433.789 414.429 433.419 413.508 432.042C412.587 430.664 412.957 428.801 414.334 427.88L509.804 364.048L568.71 269.988C569.589 268.583 571.44 268.158 572.845 269.037Z" fill="url(#paint14_linear)"/>
<path fill-rule="evenodd" clip-rule="evenodd" d="M509.021 366.157C509.044 364.5 510.407 363.176 512.063 363.2L576.313 364.116C577.97 364.139 579.294 365.501 579.27 367.158C579.247 368.815 577.885 370.139 576.228 370.115L511.978 369.199C510.321 369.176 508.997 367.814 509.021 366.157Z" fill="url(#paint15_linear)"/>
<path fill-rule="evenodd" clip-rule="evenodd" d="M569.069 268.262C570.083 266.951 571.967 266.711 573.277 267.725L614.501 299.623C614.995 300.006 615.358 300.533 615.538 301.131L625.924 335.646C626.204 336.576 626.016 337.583 625.42 338.35L596.459 375.64C595.443 376.949 593.558 377.186 592.25 376.169C590.941 375.153 590.704 373.268 591.72 371.96L619.732 335.892L610.069 303.78L569.606 272.47C568.295 271.456 568.055 269.572 569.069 268.262Z" fill="url(#paint16_linear)"/>
<path fill-rule="evenodd" clip-rule="evenodd" d="M596.648 285.582C598.266 285.943 599.284 287.546 598.923 289.163L581.424 367.594C581.063 369.211 579.46 370.23 577.843 369.869C576.226 369.508 575.207 367.905 575.568 366.287L593.067 287.857C593.428 286.24 595.031 285.221 596.648 285.582Z" fill="url(#paint17_linear)"/>
<path fill-rule="evenodd" clip-rule="evenodd" d="M582.207 345.6C583.744 344.982 585.491 345.727 586.109 347.264L601.324 385.106C601.942 386.643 601.197 388.391 599.66 389.009C598.123 389.627 596.376 388.882 595.758 387.344L580.542 349.502C579.924 347.965 580.669 346.218 582.207 345.6Z" fill="url(#paint18_linear)"/>
<path fill-rule="evenodd" clip-rule="evenodd" d="M649.938 249.027C650.917 250.364 650.626 252.241 649.29 253.219L597.767 290.931C596.43 291.909 594.553 291.619 593.575 290.282C592.596 288.945 592.886 287.068 594.223 286.089L645.746 248.378C647.083 247.399 648.96 247.69 649.938 249.027Z" fill="url(#paint19_linear)"/>
<path fill-rule="evenodd" clip-rule="evenodd" d="M645.546 248.626C646.546 247.304 648.427 247.043 649.749 248.042L703.235 288.486C704.038 289.093 704.483 290.063 704.419 291.068C704.356 292.073 703.793 292.979 702.919 293.48L624.923 338.269C623.486 339.094 621.653 338.598 620.828 337.161C620.003 335.724 620.498 333.891 621.935 333.066L695.998 290.536L646.13 252.828C644.808 251.829 644.547 249.948 645.546 248.626Z" fill="url(#paint20_linear)"/>
<path fill-rule="evenodd" clip-rule="evenodd" d="M702.114 287.959C703.726 288.339 704.726 289.954 704.345 291.567L689.591 354.164L704.413 518.796C704.562 520.446 703.345 521.904 701.694 522.053C700.044 522.201 698.586 520.984 698.438 519.334L683.571 354.218C683.543 353.897 683.565 353.574 683.639 353.261L698.505 290.19C698.886 288.578 700.501 287.579 702.114 287.959Z" fill="url(#paint21_linear)"/>
<path fill-rule="evenodd" clip-rule="evenodd" d="M620.545 334.883C621.444 333.491 623.301 333.091 624.693 333.99L671.022 363.897C672.414 364.796 672.814 366.653 671.915 368.045C671.017 369.437 669.16 369.837 667.768 368.938L621.438 339.031C620.046 338.132 619.646 336.275 620.545 334.883Z" fill="url(#paint22_linear)"/>
<path fill-rule="evenodd" clip-rule="evenodd" d="M688.63 352.79C689.631 354.11 689.372 355.992 688.052 356.993L652.72 383.791C651.4 384.792 649.518 384.533 648.517 383.213C647.515 381.893 647.774 380.011 649.094 379.01L684.426 352.213C685.747 351.211 687.628 351.47 688.63 352.79Z" fill="url(#paint23_linear)"/>
<path fill-rule="evenodd" clip-rule="evenodd" d="M622.01 334.648C623.423 333.784 625.27 334.229 626.134 335.643L653.015 379.603C653.88 381.016 653.434 382.863 652.021 383.727C650.607 384.592 648.761 384.146 647.896 382.733L621.015 338.773C620.151 337.359 620.596 335.513 622.01 334.648Z" fill="url(#paint24_linear)"/>
<path fill-rule="evenodd" clip-rule="evenodd" d="M650.221 378.48C651.834 378.101 653.449 379.102 653.828 380.715L670.076 449.918C670.454 451.531 669.454 453.145 667.841 453.524C666.228 453.903 664.613 452.902 664.234 451.289L647.986 382.086C647.608 380.473 648.608 378.859 650.221 378.48Z" fill="url(#paint25_linear)"/>
<path fill-rule="evenodd" clip-rule="evenodd" d="M651.662 378.843C653.179 379.509 653.869 381.279 653.203 382.796L626.554 443.468C625.888 444.985 624.118 445.675 622.601 445.008C621.084 444.342 620.394 442.572 621.061 441.055L647.709 380.383C648.375 378.866 650.145 378.176 651.662 378.843Z" fill="url(#paint26_linear)"/>
<path fill-rule="evenodd" clip-rule="evenodd" d="M601.118 408.931C602.72 408.507 604.362 409.461 604.786 411.063L609.709 429.648L625.314 440.339C626.681 441.275 627.03 443.143 626.093 444.51C625.157 445.876 623.29 446.225 621.923 445.289L605.398 433.968C604.805 433.562 604.378 432.956 604.194 432.261L598.986 412.599C598.562 410.998 599.517 409.355 601.118 408.931Z" fill="url(#paint27_linear)"/>
<path fill-rule="evenodd" clip-rule="evenodd" d="M623.673 439.897C625.325 440.031 626.554 441.479 626.419 443.131L615.709 574.296L626.07 602.538L626.379 528.687C626.38 528.239 626.483 527.797 626.678 527.394L664.454 449.297C665.176 447.805 666.97 447.181 668.461 447.903C669.953 448.624 670.577 450.418 669.855 451.91L632.376 529.393L632 619.249C631.994 620.701 630.949 621.94 629.519 622.191C628.089 622.442 626.684 621.633 626.184 620.269L609.849 575.742C609.699 575.334 609.64 574.898 609.675 574.465L620.439 442.642C620.574 440.991 622.022 439.762 623.673 439.897Z" fill="url(#paint28_linear)"/>
<path fill-rule="evenodd" clip-rule="evenodd" d="M649.122 485.007C650.764 484.785 652.275 485.936 652.498 487.578L682.477 709.007C682.569 709.682 682.427 710.369 682.076 710.954L675.969 721.123L692.192 818.374L702.009 821.311C703.596 821.786 704.498 823.458 704.023 825.045C703.548 826.633 701.876 827.534 700.289 827.059L688.681 823.586C687.585 823.258 686.77 822.335 686.582 821.206L669.869 721.02C669.751 720.316 669.888 719.593 670.256 718.982L676.39 708.768L646.552 488.383C646.33 486.741 647.48 485.23 649.122 485.007Z" fill="url(#paint29_linear)"/>
<path fill-rule="evenodd" clip-rule="evenodd" d="M647.327 486.331C648.19 484.917 650.036 484.469 651.451 485.332L702.711 516.591C704.126 517.453 704.573 519.299 703.71 520.714C702.848 522.129 701.002 522.576 699.587 521.713L648.327 490.454C646.912 489.592 646.465 487.746 647.327 486.331Z" fill="url(#paint30_linear)"/>
<path fill-rule="evenodd" clip-rule="evenodd" d="M702.972 516.769C704.288 517.776 704.538 519.659 703.532 520.975L680.06 551.658L666.748 590.433C666.21 592.001 664.504 592.835 662.937 592.297C661.37 591.759 660.536 590.052 661.074 588.485L674.543 549.248C674.648 548.943 674.802 548.656 674.998 548.399L698.766 517.329C699.773 516.013 701.656 515.763 702.972 516.769Z" fill="url(#paint31_linear)"/>
<path fill-rule="evenodd" clip-rule="evenodd" d="M677.225 547.749C678.848 547.414 680.435 548.458 680.77 550.081L704.727 666.121C705.062 667.744 704.018 669.331 702.396 669.666C700.773 670.001 699.186 668.957 698.851 667.334L674.894 551.294C674.559 549.671 675.602 548.084 677.225 547.749Z" fill="url(#paint32_linear)"/>
<path fill-rule="evenodd" clip-rule="evenodd" d="M666.024 613.211C667.586 612.658 669.3 613.477 669.852 615.039L703.512 710.255C704.064 711.817 703.246 713.531 701.684 714.083C700.121 714.635 698.407 713.817 697.855 712.255L664.196 617.039C663.643 615.477 664.462 613.763 666.024 613.211Z" fill="url(#paint33_linear)"/>
<path fill-rule="evenodd" clip-rule="evenodd" d="M701.853 708.492C703.379 709.138 704.092 710.898 703.446 712.424L682.733 761.354C682.087 762.88 680.326 763.594 678.8 762.948C677.275 762.302 676.561 760.541 677.207 759.015L697.921 710.085C698.567 708.559 700.327 707.846 701.853 708.492Z" fill="url(#paint34_linear)"/>
<path fill-rule="evenodd" clip-rule="evenodd" d="M679.717 767.518C681.045 766.526 682.925 766.799 683.916 768.127L703.553 794.43C704.544 795.758 704.271 797.638 702.944 798.629C701.616 799.62 699.736 799.347 698.745 798.02L679.108 771.716C678.117 770.389 678.39 768.509 679.717 767.518Z" fill="url(#paint35_linear)"/>
<path fill-rule="evenodd" clip-rule="evenodd" d="M611.993 564.26C613.31 563.254 615.192 563.506 616.198 564.822L630.555 583.613C631.561 584.929 631.309 586.812 629.993 587.818C628.676 588.824 626.793 588.572 625.788 587.255L611.431 568.465C610.425 567.149 610.676 565.266 611.993 564.26Z" fill="url(#paint36_linear)"/>
<path fill-rule="evenodd" clip-rule="evenodd" d="M618.223 493.238C619.806 492.748 621.486 493.635 621.975 495.218L631.867 527.218C632.356 528.801 631.469 530.481 629.886 530.97C628.304 531.46 626.624 530.573 626.134 528.99L616.243 496.99C615.754 495.407 616.64 493.727 618.223 493.238Z" fill="url(#paint37_linear)"/>
<path fill-rule="evenodd" clip-rule="evenodd" d="M631.072 536.947C632.103 538.243 631.889 540.13 630.592 541.162L616.948 552.018C615.651 553.049 613.764 552.834 612.732 551.538C611.701 550.241 611.916 548.354 613.212 547.322L626.856 536.467C628.153 535.435 630.04 535.65 631.072 536.947Z" fill="url(#paint38_linear)"/>
<path fill-rule="evenodd" clip-rule="evenodd" d="M669.6 448.866C670.56 450.216 670.243 452.089 668.892 453.049L622.098 486.299C620.747 487.258 618.874 486.941 617.914 485.591C616.955 484.24 617.272 482.367 618.622 481.408L665.417 448.158C666.768 447.198 668.641 447.515 669.6 448.866Z" fill="url(#paint39_linear)"/>
<path fill-rule="evenodd" clip-rule="evenodd" d="M606.521 353.799C607.117 352.253 608.854 351.484 610.399 352.08L639.739 363.401C641.285 363.997 642.054 365.734 641.458 367.28C640.861 368.825 639.125 369.595 637.579 368.999L608.239 357.678C606.694 357.081 605.924 355.345 606.521 353.799Z" fill="url(#paint40_linear)"/>
<path fill-rule="evenodd" clip-rule="evenodd" d="M601.106 360.937C601.653 359.373 603.364 358.548 604.928 359.095L637.788 370.59C639.351 371.138 640.176 372.849 639.629 374.413C639.082 375.977 637.37 376.801 635.806 376.254L602.947 364.759C601.383 364.212 600.559 362.5 601.106 360.937Z" fill="url(#paint41_linear)"/>
<path fill-rule="evenodd" clip-rule="evenodd" d="M639.067 363.228C640.709 363.453 641.857 364.967 641.631 366.608L633.267 427.455C633.041 429.096 631.528 430.244 629.886 430.019C628.245 429.793 627.097 428.279 627.323 426.638L635.687 365.791C635.912 364.15 637.426 363.002 639.067 363.228Z" fill="url(#paint42_linear)"/>
<path fill-rule="evenodd" clip-rule="evenodd" d="M598.397 364.503C599.943 363.91 601.679 364.682 602.272 366.229L607.865 380.801L635.418 388.913C637.008 389.381 637.917 391.049 637.449 392.638C636.981 394.228 635.313 395.137 633.724 394.669L604.748 386.138C603.852 385.875 603.129 385.208 602.795 384.336L596.671 368.379C596.077 366.832 596.85 365.097 598.397 364.503Z" fill="url(#paint43_linear)"/>
<path fill-rule="evenodd" clip-rule="evenodd" d="M613.218 363.104C614.823 362.694 616.457 363.663 616.867 365.269L618.914 373.29L635.002 380.121C636.527 380.769 637.239 382.53 636.591 384.055C635.944 385.58 634.183 386.292 632.657 385.644L615.202 378.233C614.341 377.867 613.699 377.12 613.468 376.213L611.053 366.753C610.643 365.147 611.613 363.514 613.218 363.104Z" fill="url(#paint44_linear)"/>
<path fill-rule="evenodd" clip-rule="evenodd" d="M977.483 240.373C978.521 240.399 979.472 240.96 979.997 241.856L1034.59 334.993C1035.22 336.067 1035.12 337.417 1034.34 338.388C1033.56 339.359 1032.26 339.747 1031.08 339.365L935.642 308.571C934.751 308.284 934.046 307.597 933.734 306.715C933.423 305.832 933.541 304.855 934.054 304.072L974.899 241.728C975.468 240.86 976.445 240.348 977.483 240.373ZM941.229 304.069L1025.43 331.239L977.267 249.063L941.229 304.069Z" fill="url(#paint45_linear)"/>
<path fill-rule="evenodd" clip-rule="evenodd" d="M873.707 194.572C874.581 193.938 875.729 193.822 876.712 194.269L978.651 240.642C979.963 241.239 980.665 242.685 980.323 244.086C979.98 245.487 978.689 246.445 977.249 246.368L879.95 241.18C878.486 241.102 877.293 239.977 877.129 238.52L872.488 197.336C872.367 196.263 872.833 195.207 873.707 194.572ZM879.043 201.921L882.806 235.324L961.721 239.532L879.043 201.921Z" fill="url(#paint46_linear)"/>
<path fill-rule="evenodd" clip-rule="evenodd" d="M878.208 195.775C878.885 197.287 878.207 199.062 876.695 199.738L757.286 253.174C755.774 253.85 753.999 253.173 753.322 251.661C752.645 250.148 753.323 248.374 754.835 247.697L874.244 194.262C875.756 193.585 877.531 194.262 878.208 195.775Z" fill="url(#paint47_linear)"/>
<path fill-rule="evenodd" clip-rule="evenodd" d="M796.113 231.208C796.25 229.557 797.7 228.329 799.351 228.466L880.358 235.195C882.009 235.332 883.237 236.782 883.1 238.433C882.962 240.084 881.513 241.311 879.862 241.174L798.854 234.446C797.203 234.309 795.976 232.859 796.113 231.208Z" fill="url(#paint48_linear)"/>
<path fill-rule="evenodd" clip-rule="evenodd" d="M883.094 237.876C883.264 239.524 882.066 240.998 880.418 241.169L758.595 253.783C756.947 253.953 755.472 252.756 755.302 251.108C755.131 249.46 756.329 247.985 757.977 247.815L879.8 235.201C881.449 235.03 882.923 236.228 883.094 237.876Z" fill="url(#paint49_linear)"/>
<path fill-rule="evenodd" clip-rule="evenodd" d="M882.6 236.512C883.524 237.888 883.157 239.752 881.782 240.675L839.299 269.196L938.262 302.495C939.832 303.023 940.677 304.725 940.148 306.295C939.62 307.866 937.919 308.71 936.348 308.182L831.616 272.941C830.533 272.577 829.752 271.629 829.6 270.496C829.448 269.364 829.952 268.244 830.901 267.607L878.438 235.694C879.813 234.77 881.677 235.137 882.6 236.512Z" fill="url(#paint50_linear)"/>
<path fill-rule="evenodd" clip-rule="evenodd" d="M935.414 302.945C936.945 302.31 938.7 303.037 939.334 304.567L988.691 423.635L1029.27 335.258C1029.97 333.753 1031.75 333.092 1033.25 333.784C1034.76 334.475 1035.42 336.256 1034.73 337.762L991.277 432.382C990.779 433.466 989.687 434.152 988.494 434.129C987.302 434.107 986.236 433.38 985.779 432.279L933.792 306.865C933.157 305.334 933.884 303.579 935.414 302.945Z" fill="url(#paint51_linear)"/>
<path fill-rule="evenodd" clip-rule="evenodd" d="M831.039 268.495C832.229 267.342 834.128 267.373 835.281 268.563L990.706 429.043C991.859 430.233 991.828 432.132 990.638 433.285C989.448 434.438 987.549 434.407 986.396 433.217L830.971 272.737C829.818 271.547 829.849 269.647 831.039 268.495Z" fill="url(#paint52_linear)"/>
<path fill-rule="evenodd" clip-rule="evenodd" d="M824.169 364.686C825.015 364.728 825.804 365.126 826.34 365.781L931.814 494.522C932.364 495.193 932.596 496.069 932.451 496.924C932.307 497.779 931.799 498.53 931.059 498.982L848.612 549.439C847.743 549.97 846.664 550.025 845.746 549.583C844.828 549.142 844.196 548.264 844.07 547.253L833.038 459.345L799.689 413.598C799.236 412.977 799.039 412.205 799.139 411.442L802.484 385.837C802.57 385.18 802.87 384.571 803.339 384.103L821.899 365.56C822.499 364.961 823.323 364.644 824.169 364.686ZM808.301 387.626L805.243 411.032L838.343 456.436C838.642 456.847 838.832 457.326 838.895 457.83L849.444 541.895L924.991 495.662L823.798 372.145L808.301 387.626Z" fill="url(#paint53_linear)"/>
<path fill-rule="evenodd" clip-rule="evenodd" d="M837.392 484.184C837.595 482.54 839.092 481.371 840.736 481.573L928.202 492.342C929.846 492.544 931.015 494.041 930.813 495.686C930.61 497.33 929.113 498.499 927.469 498.297L840.003 487.528C838.359 487.326 837.19 485.829 837.392 484.184Z" fill="url(#paint54_linear)"/>
<path fill-rule="evenodd" clip-rule="evenodd" d="M990.009 429.456C991.239 430.567 991.335 432.464 990.224 433.693L931.734 498.435C930.624 499.664 928.727 499.76 927.497 498.65C926.268 497.539 926.172 495.642 927.282 494.412L985.772 429.671C986.883 428.442 988.78 428.345 990.009 429.456Z" fill="url(#paint55_linear)"/>
<path fill-rule="evenodd" clip-rule="evenodd" d="M823.086 366.768C823.687 365.224 825.426 364.46 826.97 365.061L989.086 428.145C990.63 428.746 991.395 430.485 990.794 432.029C990.193 433.573 988.454 434.338 986.91 433.737L824.794 370.652C823.25 370.051 822.485 368.312 823.086 366.768Z" fill="url(#paint56_linear)"/>
<path fill-rule="evenodd" clip-rule="evenodd" d="M831.155 269.037C832.559 268.158 834.411 268.583 835.29 269.988L894.195 364.048L989.665 427.88C991.043 428.801 991.413 430.664 990.492 432.042C989.571 433.419 987.708 433.789 986.331 432.868L890.326 368.679C889.974 368.444 889.676 368.136 889.451 367.777L830.205 273.172C829.326 271.768 829.751 269.917 831.155 269.037Z" fill="url(#paint57_linear)"/>
<path fill-rule="evenodd" clip-rule="evenodd" d="M894.993 366.157C895.017 367.814 893.693 369.176 892.037 369.199L827.786 370.115C826.13 370.139 824.768 368.815 824.744 367.158C824.72 365.501 826.044 364.139 827.701 364.116L891.951 363.2C893.608 363.176 894.97 364.5 894.993 366.157Z" fill="url(#paint58_linear)"/>
<path fill-rule="evenodd" clip-rule="evenodd" d="M834.946 268.262C835.96 269.572 835.72 271.456 834.409 272.47L793.945 303.781L784.268 335.893L812.28 371.96C813.296 373.268 813.059 375.153 811.751 376.169C810.442 377.186 808.557 376.949 807.541 375.64L778.58 338.35C777.984 337.583 777.797 336.575 778.077 335.645L788.477 301.13C788.657 300.532 789.02 300.005 789.514 299.623L830.737 267.725C832.048 266.711 833.932 266.951 834.946 268.262Z" fill="url(#paint59_linear)"/>
<path fill-rule="evenodd" clip-rule="evenodd" d="M807.351 285.582C808.968 285.221 810.571 286.239 810.932 287.856L828.446 366.287C828.807 367.904 827.789 369.508 826.172 369.869C824.555 370.23 822.951 369.212 822.59 367.595L805.077 289.164C804.716 287.547 805.734 285.943 807.351 285.582Z" fill="url(#paint60_linear)"/>
<path fill-rule="evenodd" clip-rule="evenodd" d="M821.809 345.6C823.346 346.219 824.09 347.966 823.472 349.503L808.242 387.345C807.624 388.882 805.876 389.627 804.339 389.008C802.802 388.39 802.057 386.642 802.676 385.105L817.906 347.263C818.524 345.726 820.272 344.981 821.809 345.6Z" fill="url(#paint61_linear)"/>
<path fill-rule="evenodd" clip-rule="evenodd" d="M754.062 249.027C755.04 247.69 756.918 247.399 758.255 248.378L809.777 286.089C811.114 287.068 811.404 288.945 810.426 290.282C809.447 291.619 807.57 291.909 806.233 290.931L754.711 253.219C753.374 252.241 753.083 250.364 754.062 249.027Z" fill="url(#paint62_linear)"/>
<path fill-rule="evenodd" clip-rule="evenodd" d="M758.453 248.626C759.453 249.948 759.191 251.829 757.87 252.828L708.002 290.536L782.065 333.066C783.501 333.891 783.997 335.724 783.172 337.161C782.347 338.598 780.514 339.094 779.077 338.269L701.081 293.48C700.207 292.979 699.644 292.073 699.58 291.068C699.517 290.063 699.962 289.093 700.765 288.486L754.251 248.042C755.573 247.043 757.454 247.304 758.453 248.626Z" fill="url(#paint63_linear)"/>
<path fill-rule="evenodd" clip-rule="evenodd" d="M701.886 287.959C703.499 287.579 705.114 288.578 705.494 290.19L720.361 353.261C720.434 353.574 720.457 353.897 720.428 354.218L705.562 519.334C705.414 520.984 703.956 522.201 702.305 522.053C700.655 521.904 699.438 520.446 699.586 518.796L714.409 354.164L699.654 291.567C699.274 289.954 700.273 288.339 701.886 287.959Z" fill="url(#paint64_linear)"/>
<path fill-rule="evenodd" clip-rule="evenodd" d="M783.469 334.883C784.368 336.275 783.968 338.132 782.576 339.031L736.247 368.938C734.855 369.837 732.998 369.437 732.099 368.045C731.2 366.653 731.6 364.796 732.992 363.897L779.322 333.99C780.714 333.091 782.571 333.491 783.469 334.883Z" fill="url(#paint65_linear)"/>
<path fill-rule="evenodd" clip-rule="evenodd" d="M715.37 352.79C716.372 351.47 718.253 351.211 719.574 352.213L754.906 379.01C756.226 380.011 756.485 381.893 755.483 383.213C754.482 384.533 752.6 384.792 751.28 383.791L715.948 356.993C714.628 355.992 714.369 354.11 715.37 352.79Z" fill="url(#paint66_linear)"/>
<path fill-rule="evenodd" clip-rule="evenodd" d="M782.005 334.648C783.418 335.513 783.863 337.359 782.999 338.773L756.118 382.733C755.254 384.146 753.407 384.592 751.993 383.727C750.58 382.863 750.135 381.016 750.999 379.603L777.88 335.643C778.745 334.229 780.591 333.784 782.005 334.648Z" fill="url(#paint67_linear)"/>
<path fill-rule="evenodd" clip-rule="evenodd" d="M753.779 378.48C755.392 378.859 756.392 380.473 756.014 382.086L739.766 451.289C739.387 452.902 737.772 453.903 736.159 453.524C734.546 453.145 733.546 451.531 733.925 449.918L750.173 380.715C750.551 379.102 752.166 378.101 753.779 378.48Z" fill="url(#paint68_linear)"/>
<path fill-rule="evenodd" clip-rule="evenodd" d="M752.352 378.843C753.869 378.176 755.639 378.866 756.305 380.383L782.954 441.055C783.62 442.572 782.93 444.342 781.413 445.008C779.897 445.675 778.127 444.985 777.46 443.468L750.812 382.796C750.146 381.279 750.835 379.509 752.352 378.843Z" fill="url(#paint69_linear)"/>
<path fill-rule="evenodd" clip-rule="evenodd" d="M802.88 408.931C804.482 409.354 805.437 410.995 805.014 412.597L799.821 432.259C799.637 432.955 799.209 433.562 798.615 433.969L782.076 445.29C780.709 446.225 778.842 445.876 777.906 444.508C776.97 443.141 777.32 441.274 778.687 440.338L794.305 429.648L799.213 411.065C799.636 409.463 801.278 408.507 802.88 408.931Z" fill="url(#paint70_linear)"/>
<path fill-rule="evenodd" clip-rule="evenodd" d="M780.326 439.897C781.978 439.762 783.426 440.991 783.561 442.642L794.339 574.465C794.375 574.898 794.316 575.335 794.166 575.743L777.816 620.27C777.315 621.633 775.91 622.442 774.48 622.191C773.05 621.94 772.005 620.7 772 619.248L771.639 529.393L734.145 451.91C733.423 450.419 734.047 448.625 735.538 447.903C737.03 447.181 738.824 447.805 739.546 449.297L777.336 527.393C777.532 527.797 777.634 528.239 777.636 528.688L777.933 602.545L788.306 574.295L777.581 443.131C777.446 441.48 778.675 440.032 780.326 439.897Z" fill="url(#paint71_linear)"/>
<path fill-rule="evenodd" clip-rule="evenodd" d="M754.892 485.007C756.534 485.23 757.685 486.741 757.462 488.383L727.61 708.766L733.757 718.979C734.125 719.591 734.263 720.315 734.146 721.02L717.432 821.206C717.244 822.335 716.43 823.258 715.333 823.586L703.725 827.059C702.138 827.534 700.466 826.633 699.991 825.045C699.516 823.458 700.418 821.786 702.005 821.311L711.822 818.374L728.045 721.125L721.925 710.956C721.573 710.371 721.431 709.683 721.522 709.006L751.517 487.578C751.739 485.936 753.25 484.785 754.892 485.007Z" fill="url(#paint72_linear)"/>
<path fill-rule="evenodd" clip-rule="evenodd" d="M756.672 486.331C757.535 487.745 757.088 489.591 755.674 490.454L704.428 521.713C703.013 522.576 701.167 522.129 700.304 520.714C699.441 519.3 699.889 517.454 701.303 516.591L752.549 485.332C753.964 484.469 755.81 484.916 756.672 486.331Z" fill="url(#paint73_linear)"/>
<path fill-rule="evenodd" clip-rule="evenodd" d="M701.043 516.769C702.359 515.763 704.241 516.013 705.248 517.329L729.016 548.399C729.213 548.656 729.367 548.943 729.471 549.249L742.927 588.486C743.464 590.054 742.629 591.76 741.062 592.297C739.495 592.835 737.789 592 737.251 590.433L723.954 551.657L700.483 520.975C699.476 519.659 699.727 517.776 701.043 516.769Z" fill="url(#paint74_linear)"/>
<path fill-rule="evenodd" clip-rule="evenodd" d="M726.775 547.749C728.397 548.084 729.441 549.671 729.106 551.294L705.149 667.334C704.814 668.957 703.227 670.001 701.604 669.666C699.982 669.331 698.938 667.744 699.273 666.121L723.23 550.081C723.565 548.458 725.152 547.414 726.775 547.749Z" fill="url(#paint75_linear)"/>
<path fill-rule="evenodd" clip-rule="evenodd" d="M737.976 613.21C739.538 613.762 740.357 615.476 739.805 617.039L706.159 712.254C705.607 713.816 703.894 714.635 702.331 714.083C700.769 713.531 699.95 711.817 700.502 710.255L734.147 615.04C734.699 613.477 736.413 612.658 737.976 613.21Z" fill="url(#paint76_linear)"/>
<path fill-rule="evenodd" clip-rule="evenodd" d="M702.162 708.492C703.688 707.846 705.448 708.56 706.094 710.086L726.793 759.016C727.438 760.542 726.725 762.302 725.199 762.948C723.673 763.593 721.913 762.88 721.267 761.354L700.568 712.424C699.922 710.898 700.636 709.137 702.162 708.492Z" fill="url(#paint77_linear)"/>
<path fill-rule="evenodd" clip-rule="evenodd" d="M724.297 767.518C725.625 768.509 725.898 770.389 724.907 771.716L705.269 798.02C704.278 799.347 702.398 799.62 701.071 798.629C699.743 797.638 699.47 795.758 700.461 794.43L720.099 768.127C721.09 766.799 722.97 766.526 724.297 767.518Z" fill="url(#paint78_linear)"/>
<path fill-rule="evenodd" clip-rule="evenodd" d="M792.006 564.259C793.323 565.264 793.576 567.147 792.57 568.464L778.228 587.254C777.223 588.571 775.34 588.824 774.023 587.819C772.706 586.813 772.453 584.931 773.458 583.614L787.801 564.823C788.806 563.506 790.689 563.254 792.006 564.259Z" fill="url(#paint79_linear)"/>
<path fill-rule="evenodd" clip-rule="evenodd" d="M785.777 493.238C787.36 493.727 788.246 495.407 787.757 496.99L777.866 528.99C777.376 530.573 775.697 531.46 774.114 530.97C772.531 530.481 771.644 528.801 772.133 527.218L782.025 495.218C782.514 493.635 784.194 492.748 785.777 493.238Z" fill="url(#paint80_linear)"/>
<path fill-rule="evenodd" clip-rule="evenodd" d="M772.927 536.948C773.958 535.651 775.845 535.435 777.143 536.466L790.801 547.321C792.098 548.352 792.314 550.239 791.283 551.537C790.253 552.834 788.365 553.049 787.068 552.019L773.409 541.163C772.112 540.132 771.897 538.245 772.927 536.948Z" fill="url(#paint81_linear)"/>
<path fill-rule="evenodd" clip-rule="evenodd" d="M734.399 448.866C735.359 447.515 737.232 447.198 738.583 448.158L785.377 481.408C786.728 482.367 787.045 484.24 786.085 485.591C785.126 486.941 783.253 487.258 781.902 486.299L735.107 453.049C733.757 452.089 733.44 450.216 734.399 448.866Z" fill="url(#paint82_linear)"/>
<path fill-rule="evenodd" clip-rule="evenodd" d="M797.479 353.799C798.076 355.345 797.306 357.081 795.76 357.678L766.421 368.999C764.875 369.595 763.138 368.825 762.542 367.28C761.946 365.734 762.715 363.997 764.261 363.401L793.6 352.08C795.146 351.484 796.883 352.253 797.479 353.799Z" fill="url(#paint83_linear)"/>
<path fill-rule="evenodd" clip-rule="evenodd" d="M802.909 360.937C803.456 362.501 802.631 364.212 801.067 364.759L768.193 376.254C766.629 376.801 764.918 375.976 764.371 374.412C763.824 372.848 764.649 371.137 766.213 370.59L799.087 359.095C800.651 358.548 802.362 359.373 802.909 360.937Z" fill="url(#paint84_linear)"/>
<path fill-rule="evenodd" clip-rule="evenodd" d="M764.932 363.228C766.574 363.002 768.087 364.15 768.313 365.791L776.677 426.638C776.903 428.279 775.755 429.793 774.113 430.019C772.472 430.244 770.958 429.096 770.733 427.455L762.369 366.608C762.143 364.967 763.291 363.453 764.932 363.228Z" fill="url(#paint85_linear)"/>
<path fill-rule="evenodd" clip-rule="evenodd" d="M805.603 364.503C807.15 365.097 807.923 366.832 807.329 368.379L801.205 384.336C800.87 385.208 800.148 385.875 799.251 386.138L770.276 394.669C768.686 395.137 767.018 394.228 766.55 392.638C766.082 391.049 766.992 389.381 768.581 388.913L796.135 380.801L801.727 366.229C802.321 364.682 804.056 363.91 805.603 364.503Z" fill="url(#paint86_linear)"/>
<path fill-rule="evenodd" clip-rule="evenodd" d="M790.782 363.104C792.387 363.514 793.357 365.147 792.947 366.753L790.532 376.213C790.301 377.12 789.659 377.867 788.798 378.233L771.343 385.644C769.818 386.292 768.056 385.58 767.409 384.055C766.761 382.53 767.473 380.769 768.998 380.121L785.086 373.29L787.133 365.269C787.543 363.663 789.177 362.694 790.782 363.104Z" fill="url(#paint87_linear)"/>
<path fill-rule="evenodd" clip-rule="evenodd" d="M662.984 240.507C663.538 240.281 664.148 240.226 664.734 240.35L702.35 248.285C703.971 248.627 705.008 250.218 704.666 251.839C704.324 253.46 702.733 254.497 701.112 254.155L664.395 246.41L648.823 252.749C647.289 253.374 645.538 252.636 644.914 251.101C644.289 249.567 645.027 247.816 646.561 247.192L662.984 240.507Z" fill="url(#paint88_linear)"/>
<path fill-rule="evenodd" clip-rule="evenodd" d="M739.266 240.35C739.852 240.226 740.461 240.281 741.015 240.506L757.452 247.191C758.987 247.815 759.725 249.566 759.101 251.1C758.477 252.635 756.727 253.373 755.192 252.749L739.606 246.41L702.903 254.155C701.282 254.497 699.69 253.461 699.348 251.839C699.006 250.218 700.043 248.627 701.664 248.285L739.266 240.35Z" fill="url(#paint89_linear)"/>
<path fill-rule="evenodd" clip-rule="evenodd" d="M702.007 664.236C703.664 664.236 705.007 665.579 705.007 667.236V822.383C705.007 824.04 703.664 825.383 702.007 825.383C700.35 825.383 699.007 824.04 699.007 822.383V667.236C699.007 665.579 700.35 664.236 702.007 664.236Z" fill="url(#paint90_linear)"/>
<path d="M912.5 -109L624.923 178.027C616.25 186.658 602.179 186.658 593.505 178.027C584.832 169.396 584.832 155.395 593.505 146.764L849.664 -109H912.5Z" fill="url(#paint91_linear)"/>
<path d="M118.871 277.653L164.205 263.025L128.45 231L118.871 277.653Z" fill="url(#paint92_linear)"/>
<path d="M102.336 716.657L88 734.702L110.986 738.014L102.336 716.657Z" fill="url(#paint93_linear)"/>
<path d="M1512.75 -150L1064.88 297.868C1029.91 332.844 973.208 332.844 938.232 297.868C903.256 262.893 903.256 206.194 938.232 171.219L1259.41 -150H1512.75Z" fill="#FFE440"/>
<path d="M1557.57 -90L1214.22 253.347C1187.41 280.157 1143.92 280.157 1117.11 253.347C1090.3 226.536 1090.3 183.041 1117.11 156.231L1363.34 -90H1557.57Z" fill="url(#paint94_linear)"/>
<path d="M754.28 511.875L760.268 505.895L763.014 511.571L752.961 521.611L754.28 511.875Z" fill="#FFE440"/>
<path d="M662.185 603.85L661.959 604.076L662.256 604.373L662.185 603.85Z" fill="#FFE440"/>
<path d="M665.204 626.149L650.796 640.534L655.003 644.762L666.209 633.574L665.204 626.149Z" fill="#FFE440"/>
<path d="M668.231 648.502L646.543 670.167L650.76 674.375L669.235 655.919L668.231 648.502Z" fill="#FFE440"/>
<path d="M671.242 670.745L646 695.946L650.216 700.155L672.246 678.16L671.242 670.745Z" fill="#FFE440"/>
<path d="M674.261 693.043L648.066 719.196L652.301 723.424L675.268 700.483L674.261 693.043Z" fill="#FFE440"/>
<path d="M670.113 722.487L652.134 740.447L656.341 744.647L671.317 729.703L670.113 722.487Z" fill="#FFE440"/>
<path d="M673.73 744.167L657.866 760.028L662.105 764.254L674.94 751.421L673.73 744.167Z" fill="#FFE440"/>
<path d="M677.348 765.857L664.991 778.196L669.206 782.405L678.552 773.074L677.348 765.857Z" fill="#FFE440"/>
<path d="M680.967 787.55L673.391 795.105L677.626 799.333L682.176 794.793L680.967 787.55Z" fill="#FFE440"/>
<path d="M684.586 809.245L682.939 810.889L685.245 813.191L684.586 809.245Z" fill="#FFE440"/>
<path d="M694.002 825.178L693.589 825.59L697.824 829.818L700.525 827.12C700.446 827.103 700.367 827.083 700.289 827.059L694.002 825.178Z" fill="#FFE440"/>
<path d="M719.63 808.033L740.532 787.149L736.326 782.949L721.316 797.926L719.63 808.033Z" fill="#FFE440"/>
<path d="M724.703 777.62L730.657 771.677L726.442 767.467L726.388 767.521L724.703 777.62Z" fill="#FFE440"/>
<path d="M745.024 580.208L771.735 553.523L771.702 545.137L746.343 570.47L745.024 580.208Z" fill="#FFE440"/>
<path d="M748.991 550.924L771.286 528.664L768.536 522.982L750.311 541.178L748.991 550.924Z" fill="#FFE440"/>
<path d="M788.5 503.049L789.137 510.841L827.037 473.002L822.802 468.802L788.5 503.049Z" fill="#FFE440"/>
<path d="M790.413 526.445L835.772 481.132L836.711 488.614L791.049 534.229L790.413 526.445Z" fill="#FFE440"/>
<path d="M838.595 503.63L805.595 536.586L809.812 540.795L839.534 511.111L838.595 503.63Z" fill="#FFE440"/>
<path d="M900.722 517.548L893.116 525.136L897.35 529.366L922.646 504.131L900.722 517.548Z" fill="#FFE440"/>
<path d="M787.22 487.397L786.64 480.306L790.481 484.14L787.22 487.397Z" fill="#FFE440"/>
<path d="M997.232 876.743L1001.47 880.943L1063.65 818.915L1059.41 814.687L997.232 876.743Z" fill="#FFE440"/>
<path d="M918.305 533.751L914.07 529.523L960.68 482.988L964.914 487.215L918.305 533.751Z" fill="#FFE440"/>
<path d="M937.138 540.26L932.904 536.059L977.646 491.36L981.881 495.588L937.138 540.26Z" fill="#FFE440"/>
<path d="M954.188 548.521L949.954 544.321L993.47 500.873L997.677 505.101L954.188 548.521Z" fill="#FFE440"/>
<path d="M969.678 558.367L965.471 554.167L1008.18 511.498L1012.41 515.726L969.678 558.367Z" fill="#FFE440"/>
<path d="M1021.81 523.143L979.466 565.436L983.683 569.645L1026.03 527.352L1021.81 523.143Z" fill="#FFE440"/>
<path d="M705.245 839.27L747.599 796.983L751.814 801.192L709.46 843.479L705.245 839.27Z" fill="#FFE440"/>
<path d="M1034.52 535.832L992.162 578.119L996.378 582.328L1038.73 540.041L1034.52 535.832Z" fill="#FFE440"/>
<path d="M717.938 851.913L760.272 809.646L764.488 813.855L722.153 856.123L717.938 851.913Z" fill="#FFE440"/>
<path d="M1007.71 596.336L1003.47 592.135L1046.18 549.466L1050.42 553.694L1007.71 596.336Z" fill="#FFE440"/>
<path d="M731.618 863.558L735.852 867.786L778.533 825.173L774.327 820.945L731.618 863.558Z" fill="#FFE440"/>
<path d="M1056.81 564.184L1013.31 607.611L1017.53 611.82L1061.03 568.393L1056.81 564.184Z" fill="#FFE440"/>
<path d="M746.315 874.193L789.812 830.766L794.027 834.975L750.531 878.402L746.315 874.193Z" fill="#FFE440"/>
<path d="M1025.84 628.852L1021.64 624.652L1066.38 579.952L1070.61 584.18L1025.84 628.852Z" fill="#FFE440"/>
<path d="M762.14 883.728L806.859 839.042L811.096 843.269L766.377 887.955L762.14 883.728Z" fill="#FFE440"/>
<path d="M1032.39 647.627L1028.18 643.399L1074.79 596.864L1079 601.092L1032.39 647.627Z" fill="#FFE440"/>
<path d="M779.062 892.125L783.297 896.325L829.906 849.79L825.672 845.59L779.062 892.125Z" fill="#FFE440"/>
<path d="M1081.91 615.036L1032.56 664.339L1036.8 668.566L1086.15 619.263L1081.91 615.036Z" fill="#FFE440"/>
<path d="M797.298 899.222L846.644 849.913L850.881 854.14L801.535 903.449L797.298 899.222Z" fill="#FFE440"/>
<path d="M1087.66 634.636L1034.21 687.996L1038.43 692.205L1091.87 638.845L1087.66 634.636Z" fill="#FFE440"/>
<path d="M816.89 904.958L870.327 851.591L874.543 855.799L821.106 909.167L816.89 904.958Z" fill="#FFE440"/>
<path d="M1035.98 719.947L1031.75 715.747L1091.73 655.916L1095.94 660.116L1035.98 719.947Z" fill="#FFE440"/>
<path d="M838.153 909.037L842.388 913.237L902.342 853.378L898.135 849.15L838.153 909.037Z" fill="#FFE440"/>
<path d="M1025.34 755.885L1021.14 751.685L1093.79 679.142L1098 683.37L1025.34 755.885Z" fill="#FFE440"/>
<path d="M861.471 911.095L865.706 915.295L938.364 842.753L934.129 838.552L861.471 911.095Z" fill="#FFE440"/>
<path d="M891.532 914.794L887.297 910.566L1093.26 704.927L1097.5 709.155L891.532 914.794Z" fill="#FFE440"/>
<path d="M916.94 906.311L921.175 910.539L1093.24 738.751L1089 734.523L916.94 906.311Z" fill="#FFE440"/>
<path d="M1077.81 770.958L953.446 895.199L957.663 899.406L1082.03 775.166L1077.81 770.958Z" fill="#FFE440"/>
<path d="M386 410.454C404.518 410.454 419.546 425.482 419.546 444C419.546 462.518 404.518 477.546 386 477.546C367.482 477.546 352.454 462.518 352.454 444C352.454 425.482 367.482 410.454 386 410.454ZM386 388C355.048 388 330 413.048 330 444C330 474.952 355.048 500 386 500C416.952 500 442 474.952 442 444C442 413.137 416.952 388 386 388Z" fill="#FFE040"/>
<path d="M28.5 618.427C37.9241 618.427 45.5727 626.076 45.5727 635.5C45.5727 644.924 37.9241 652.573 28.5 652.573C19.0759 652.573 11.4273 644.924 11.4273 635.5C11.4273 626.076 19.0759 618.427 28.5 618.427ZM28.5 607C12.7476 607 0 619.748 0 635.5C0 651.252 12.7476 664 28.5 664C44.2524 664 57 651.252 57 635.5C57 619.793 44.2524 607 28.5 607Z" fill="#FFE040"/>
<path d="M1154.08 296.238L1139 312.877V304.371L1150.23 292L1154.08 296.238Z" fill="white"/>
<path d="M1177.17 296.238L1139 338.278V329.773L1173.31 292L1177.17 296.238Z" fill="white"/>
<path d="M1200.22 296.238L1139 363.679V355.174L1196.36 292L1200.22 296.238Z" fill="white"/>
<path d="M1223.3 296.238L1139 389.052V380.547L1219.45 292L1223.3 296.238Z" fill="white"/>
<path d="M1246.36 296.238L1139 414.482V405.977L1242.5 292L1246.36 296.238Z" fill="white"/>
<path d="M1160.68 416L1156.85 411.762L1265.58 292L1269.41 296.238L1160.68 416Z" fill="white"/>
<path d="M1183.74 416L1179.88 411.762L1288.64 292L1292.47 296.238L1183.74 416Z" fill="white"/>
<path d="M1206.82 416L1202.96 411.762L1311.72 292L1315.55 296.238L1206.82 416Z" fill="white"/>
<path d="M1229.9 416L1226.05 411.762L1334.78 292L1338.6 296.238L1229.9 416Z" fill="white"/>
<path d="M1252.96 416L1249.1 411.762L1357.86 292L1361.69 296.238L1252.96 416Z" fill="white"/>
<path d="M822.796 115.776L868.653 162.736L805.465 178.554L822.796 115.776Z" stroke="white" stroke-width="8"/>
<path d="M516.039 635.194L593.751 646.246L563.902 573L516.039 635.194Z" fill="white"/>
<path d="M154 626.466L311 718V535L154 626.466Z" fill="#FFE440"/>
<defs>
<linearGradient id="paint0_linear" x1="316.016" y1="820.002" x2="464.994" y2="820.002" gradientUnits="userSpaceOnUse">
<stop stop-color="#009CCE"/>
<stop offset="1" stop-color="#00CCEA"/>
</linearGradient>
<linearGradient id="paint1_linear" x1="1236.51" y1="1231.91" x2="580.12" y2="495.789" gradientUnits="userSpaceOnUse">
<stop offset="0.334" stop-color="#2E3192"/>
<stop offset="0.3847" stop-color="#2A2D8E"/>
<stop offset="0.9963" stop-color="#00005C"/>
</linearGradient>
<linearGradient id="paint2_linear" x1="368.99" y1="290.033" x2="470.52" y2="290.033" gradientUnits="userSpaceOnUse">
<stop stop-color="#2697C4"/>
<stop offset="1" stop-color="#39C3DD"/>
</linearGradient>
<linearGradient id="paint3_linear" x1="423.58" y1="220.235" x2="531.618" y2="220.235" gradientUnits="userSpaceOnUse">
<stop stop-color="#2697C4"/>
<stop offset="1" stop-color="#39C3DD"/>
</linearGradient>
<linearGradient id="paint4_linear" x1="525.532" y1="223.773" x2="651.025" y2="223.773" gradientUnits="userSpaceOnUse">
<stop stop-color="#2697C4"/>
<stop offset="1" stop-color="#39C3DD"/>
</linearGradient>
<linearGradient id="paint5_linear" x1="520.896" y1="234.832" x2="607.971" y2="234.832" gradientUnits="userSpaceOnUse">
<stop stop-color="#2697C4"/>
<stop offset="1" stop-color="#39C3DD"/>
</linearGradient>
<linearGradient id="paint6_linear" x1="520.892" y1="244.509" x2="648.8" y2="244.509" gradientUnits="userSpaceOnUse">
<stop stop-color="#2697C4"/>
<stop offset="1" stop-color="#39C3DD"/>
</linearGradient>
<linearGradient id="paint7_linear" x1="463.698" y1="271.829" x2="574.516" y2="271.829" gradientUnits="userSpaceOnUse">
<stop stop-color="#2697C4"/>
<stop offset="1" stop-color="#39C3DD"/>
</linearGradient>
<linearGradient id="paint8_linear" x1="368.989" y1="368.544" x2="470.521" y2="368.544" gradientUnits="userSpaceOnUse">
<stop stop-color="#2697C4"/>
<stop offset="1" stop-color="#39C3DD"/>
</linearGradient>
<linearGradient id="paint9_linear" x1="412.433" y1="351.044" x2="573.983" y2="351.044" gradientUnits="userSpaceOnUse">
<stop stop-color="#2697C4"/>
<stop offset="1" stop-color="#39C3DD"/>
</linearGradient>
<linearGradient id="paint10_linear" x1="471.493" y1="457.452" x2="604.976" y2="457.452" gradientUnits="userSpaceOnUse">
<stop stop-color="#2697C4"/>
<stop offset="1" stop-color="#39C3DD"/>
</linearGradient>
<linearGradient id="paint11_linear" x1="473.169" y1="489.95" x2="566.693" y2="489.95" gradientUnits="userSpaceOnUse">
<stop stop-color="#2697C4"/>
<stop offset="1" stop-color="#39C3DD"/>
</linearGradient>
<linearGradient id="paint12_linear" x1="413.01" y1="464.118" x2="477.55" y2="464.118" gradientUnits="userSpaceOnUse">
<stop stop-color="#2697C4"/>
<stop offset="1" stop-color="#39C3DD"/>
</linearGradient>
<linearGradient id="paint13_linear" x1="412.999" y1="399.463" x2="581.233" y2="399.463" gradientUnits="userSpaceOnUse">
<stop stop-color="#2697C4"/>
<stop offset="1" stop-color="#39C3DD"/>
</linearGradient>
<linearGradient id="paint14_linear" x1="412.986" y1="351.129" x2="574.361" y2="351.129" gradientUnits="userSpaceOnUse">
<stop stop-color="#2697C4"/>
<stop offset="1" stop-color="#39C3DD"/>
</linearGradient>
<linearGradient id="paint15_linear" x1="509.014" y1="366.664" x2="579.318" y2="366.664" gradientUnits="userSpaceOnUse">
<stop stop-color="#2697C4"/>
<stop offset="1" stop-color="#39C3DD"/>
</linearGradient>
<linearGradient id="paint16_linear" x1="568.436" y1="322.05" x2="626.09" y2="322.05" gradientUnits="userSpaceOnUse">
<stop stop-color="#2697C4"/>
<stop offset="1" stop-color="#39C3DD"/>
</linearGradient>
<linearGradient id="paint17_linear" x1="575.493" y1="327.803" x2="599.012" y2="327.803" gradientUnits="userSpaceOnUse">
<stop stop-color="#2697C4"/>
<stop offset="1" stop-color="#39C3DD"/>
</linearGradient>
<linearGradient id="paint18_linear" x1="580.323" y1="367.345" x2="601.556" y2="367.345" gradientUnits="userSpaceOnUse">
<stop stop-color="#2697C4"/>
<stop offset="1" stop-color="#39C3DD"/>
</linearGradient>
<linearGradient id="paint19_linear" x1="592.989" y1="269.695" x2="650.557" y2="269.695" gradientUnits="userSpaceOnUse">
<stop stop-color="#2697C4"/>
<stop offset="1" stop-color="#39C3DD"/>
</linearGradient>
<linearGradient id="paint20_linear" x1="620.42" y1="293.136" x2="704.482" y2="293.136" gradientUnits="userSpaceOnUse">
<stop stop-color="#2697C4"/>
<stop offset="1" stop-color="#39C3DD"/>
</linearGradient>
<linearGradient id="paint21_linear" x1="683.557" y1="405.188" x2="704.44" y2="405.188" gradientUnits="userSpaceOnUse">
<stop stop-color="#2697C4"/>
<stop offset="1" stop-color="#39C3DD"/>
</linearGradient>
<linearGradient id="paint22_linear" x1="620.06" y1="351.497" x2="672.43" y2="351.497" gradientUnits="userSpaceOnUse">
<stop stop-color="#2697C4"/>
<stop offset="1" stop-color="#39C3DD"/>
</linearGradient>
<linearGradient id="paint23_linear" x1="647.903" y1="368.032" x2="689.267" y2="368.032" gradientUnits="userSpaceOnUse">
<stop stop-color="#2697C4"/>
<stop offset="1" stop-color="#39C3DD"/>
</linearGradient>
<linearGradient id="paint24_linear" x1="620.571" y1="359.234" x2="653.478" y2="359.234" gradientUnits="userSpaceOnUse">
<stop stop-color="#2697C4"/>
<stop offset="1" stop-color="#39C3DD"/>
</linearGradient>
<linearGradient id="paint25_linear" x1="647.904" y1="416.071" x2="670.171" y2="416.071" gradientUnits="userSpaceOnUse">
<stop stop-color="#2697C4"/>
<stop offset="1" stop-color="#39C3DD"/>
</linearGradient>
<linearGradient id="paint26_linear" x1="620.803" y1="411.987" x2="653.479" y2="411.987" gradientUnits="userSpaceOnUse">
<stop stop-color="#2697C4"/>
<stop offset="1" stop-color="#39C3DD"/>
</linearGradient>
<linearGradient id="paint27_linear" x1="598.883" y1="427.357" x2="626.637" y2="427.357" gradientUnits="userSpaceOnUse">
<stop stop-color="#2697C4"/>
<stop offset="1" stop-color="#39C3DD"/>
</linearGradient>
<linearGradient id="paint28_linear" x1="609.659" y1="531.23" x2="670.196" y2="531.23" gradientUnits="userSpaceOnUse">
<stop stop-color="#2697C4"/>
<stop offset="1" stop-color="#39C3DD"/>
</linearGradient>
<linearGradient id="paint29_linear" x1="646.519" y1="656.399" x2="704.188" y2="656.399" gradientUnits="userSpaceOnUse">
<stop stop-color="#2697C4"/>
<stop offset="1" stop-color="#39C3DD"/>
</linearGradient>
<linearGradient id="paint30_linear" x1="646.883" y1="503.557" x2="704.188" y2="503.557" gradientUnits="userSpaceOnUse">
<stop stop-color="#2697C4"/>
<stop offset="1" stop-color="#39C3DD"/>
</linearGradient>
<linearGradient id="paint31_linear" x1="660.906" y1="554.377" x2="704.178" y2="554.377" gradientUnits="userSpaceOnUse">
<stop stop-color="#2697C4"/>
<stop offset="1" stop-color="#39C3DD"/>
</linearGradient>
<linearGradient id="paint32_linear" x1="674.828" y1="608.82" x2="704.81" y2="608.82" gradientUnits="userSpaceOnUse">
<stop stop-color="#2697C4"/>
<stop offset="1" stop-color="#39C3DD"/>
</linearGradient>
<linearGradient id="paint33_linear" x1="664.019" y1="663.74" x2="703.711" y2="663.74" gradientUnits="userSpaceOnUse">
<stop stop-color="#2697C4"/>
<stop offset="1" stop-color="#39C3DD"/>
</linearGradient>
<linearGradient id="paint34_linear" x1="676.967" y1="735.771" x2="703.702" y2="735.771" gradientUnits="userSpaceOnUse">
<stop stop-color="#2697C4"/>
<stop offset="1" stop-color="#39C3DD"/>
</linearGradient>
<linearGradient id="paint35_linear" x1="678.509" y1="783.103" x2="704.167" y2="783.103" gradientUnits="userSpaceOnUse">
<stop stop-color="#2697C4"/>
<stop offset="1" stop-color="#39C3DD"/>
</linearGradient>
<linearGradient id="paint36_linear" x1="610.812" y1="576.062" x2="631.185" y2="576.062" gradientUnits="userSpaceOnUse">
<stop stop-color="#2697C4"/>
<stop offset="1" stop-color="#39C3DD"/>
</linearGradient>
<linearGradient id="paint37_linear" x1="616.107" y1="512.139" x2="632.012" y2="512.139" gradientUnits="userSpaceOnUse">
<stop stop-color="#2697C4"/>
<stop offset="1" stop-color="#39C3DD"/>
</linearGradient>
<linearGradient id="paint38_linear" x1="612.078" y1="544.258" x2="631.738" y2="544.258" gradientUnits="userSpaceOnUse">
<stop stop-color="#2697C4"/>
<stop offset="1" stop-color="#39C3DD"/>
</linearGradient>
<linearGradient id="paint39_linear" x1="617.354" y1="467.265" x2="670.191" y2="467.265" gradientUnits="userSpaceOnUse">
<stop stop-color="#2697C4"/>
<stop offset="1" stop-color="#39C3DD"/>
</linearGradient>
<linearGradient id="paint40_linear" x1="606.315" y1="360.555" x2="641.684" y2="360.555" gradientUnits="userSpaceOnUse">
<stop stop-color="#2697C4"/>
<stop offset="1" stop-color="#39C3DD"/>
</linearGradient>
<linearGradient id="paint41_linear" x1="600.933" y1="367.691" x2="639.824" y2="367.691" gradientUnits="userSpaceOnUse">
<stop stop-color="#2697C4"/>
<stop offset="1" stop-color="#39C3DD"/>
</linearGradient>
<linearGradient id="paint42_linear" x1="627.293" y1="396.685" x2="641.669" y2="396.685" gradientUnits="userSpaceOnUse">
<stop stop-color="#2697C4"/>
<stop offset="1" stop-color="#39C3DD"/>
</linearGradient>
<linearGradient id="paint43_linear" x1="596.467" y1="379.576" x2="637.6" y2="379.576" gradientUnits="userSpaceOnUse">
<stop stop-color="#2697C4"/>
<stop offset="1" stop-color="#39C3DD"/>
</linearGradient>
<linearGradient id="paint44_linear" x1="610.957" y1="374.468" x2="636.848" y2="374.468" gradientUnits="userSpaceOnUse">
<stop stop-color="#2697C4"/>
<stop offset="1" stop-color="#39C3DD"/>
</linearGradient>
<linearGradient id="paint45_linear" x1="933.553" y1="290.033" x2="1035.07" y2="290.033" gradientUnits="userSpaceOnUse">
<stop stop-color="#2697C4"/>
<stop offset="1" stop-color="#39C3DD"/>
</linearGradient>
<linearGradient id="paint46_linear" x1="872.459" y1="220.235" x2="980.482" y2="220.235" gradientUnits="userSpaceOnUse">
<stop stop-color="#2697C4"/>
<stop offset="1" stop-color="#39C3DD"/>
</linearGradient>
<linearGradient id="paint47_linear" x1="753.047" y1="223.773" x2="878.555" y2="223.773" gradientUnits="userSpaceOnUse">
<stop stop-color="#2697C4"/>
<stop offset="1" stop-color="#39C3DD"/>
</linearGradient>
<linearGradient id="paint48_linear" x1="796.094" y1="234.832" x2="883.169" y2="234.832" gradientUnits="userSpaceOnUse">
<stop stop-color="#2697C4"/>
<stop offset="1" stop-color="#39C3DD"/>
</linearGradient>
<linearGradient id="paint49_linear" x1="755.273" y1="244.509" x2="883.196" y2="244.509" gradientUnits="userSpaceOnUse">
<stop stop-color="#2697C4"/>
<stop offset="1" stop-color="#39C3DD"/>
</linearGradient>
<linearGradient id="paint50_linear" x1="829.562" y1="271.829" x2="940.38" y2="271.829" gradientUnits="userSpaceOnUse">
<stop stop-color="#2697C4"/>
<stop offset="1" stop-color="#39C3DD"/>
</linearGradient>
<linearGradient id="paint51_linear" x1="933.552" y1="368.544" x2="1035.07" y2="368.544" gradientUnits="userSpaceOnUse">
<stop stop-color="#2697C4"/>
<stop offset="1" stop-color="#39C3DD"/>
</linearGradient>
<linearGradient id="paint52_linear" x1="830.11" y1="351.044" x2="991.66" y2="351.044" gradientUnits="userSpaceOnUse">
<stop stop-color="#2697C4"/>
<stop offset="1" stop-color="#39C3DD"/>
</linearGradient>
<linearGradient id="paint53_linear" x1="799.1" y1="457.452" x2="932.583" y2="457.452" gradientUnits="userSpaceOnUse">
<stop stop-color="#2697C4"/>
<stop offset="1" stop-color="#39C3DD"/>
</linearGradient>
<linearGradient id="paint54_linear" x1="837.36" y1="489.95" x2="930.899" y2="489.95" gradientUnits="userSpaceOnUse">
<stop stop-color="#2697C4"/>
<stop offset="1" stop-color="#39C3DD"/>
</linearGradient>
<linearGradient id="paint55_linear" x1="926.502" y1="464.118" x2="991.042" y2="464.118" gradientUnits="userSpaceOnUse">
<stop stop-color="#2697C4"/>
<stop offset="1" stop-color="#39C3DD"/>
</linearGradient>
<linearGradient id="paint56_linear" x1="822.864" y1="399.463" x2="991.112" y2="399.463" gradientUnits="userSpaceOnUse">
<stop stop-color="#2697C4"/>
<stop offset="1" stop-color="#39C3DD"/>
</linearGradient>
<linearGradient id="paint57_linear" x1="829.731" y1="351.129" x2="991.107" y2="351.129" gradientUnits="userSpaceOnUse">
<stop stop-color="#2697C4"/>
<stop offset="1" stop-color="#39C3DD"/>
</linearGradient>
<linearGradient id="paint58_linear" x1="824.737" y1="366.664" x2="895.041" y2="366.664" gradientUnits="userSpaceOnUse">
<stop stop-color="#2697C4"/>
<stop offset="1" stop-color="#39C3DD"/>
</linearGradient>
<linearGradient id="paint59_linear" x1="777.944" y1="322.05" x2="835.612" y2="322.05" gradientUnits="userSpaceOnUse">
<stop stop-color="#2697C4"/>
<stop offset="1" stop-color="#39C3DD"/>
</linearGradient>
<linearGradient id="paint60_linear" x1="805.002" y1="327.803" x2="828.535" y2="327.803" gradientUnits="userSpaceOnUse">
<stop stop-color="#2697C4"/>
<stop offset="1" stop-color="#39C3DD"/>
</linearGradient>
<linearGradient id="paint61_linear" x1="802.456" y1="367.345" x2="823.704" y2="367.345" gradientUnits="userSpaceOnUse">
<stop stop-color="#2697C4"/>
<stop offset="1" stop-color="#39C3DD"/>
</linearGradient>
<linearGradient id="paint62_linear" x1="753.477" y1="269.695" x2="811.044" y2="269.695" gradientUnits="userSpaceOnUse">
<stop stop-color="#2697C4"/>
<stop offset="1" stop-color="#39C3DD"/>
</linearGradient>
<linearGradient id="paint63_linear" x1="699.566" y1="293.136" x2="783.628" y2="293.136" gradientUnits="userSpaceOnUse">
<stop stop-color="#2697C4"/>
<stop offset="1" stop-color="#39C3DD"/>
</linearGradient>
<linearGradient id="paint64_linear" x1="699.572" y1="405.188" x2="720.455" y2="405.188" gradientUnits="userSpaceOnUse">
<stop stop-color="#2697C4"/>
<stop offset="1" stop-color="#39C3DD"/>
</linearGradient>
<linearGradient id="paint65_linear" x1="731.614" y1="351.497" x2="783.985" y2="351.497" gradientUnits="userSpaceOnUse">
<stop stop-color="#2697C4"/>
<stop offset="1" stop-color="#39C3DD"/>
</linearGradient>
<linearGradient id="paint66_linear" x1="714.756" y1="368.032" x2="756.121" y2="368.032" gradientUnits="userSpaceOnUse">
<stop stop-color="#2697C4"/>
<stop offset="1" stop-color="#39C3DD"/>
</linearGradient>
<linearGradient id="paint67_linear" x1="750.555" y1="359.234" x2="783.462" y2="359.234" gradientUnits="userSpaceOnUse">
<stop stop-color="#2697C4"/>
<stop offset="1" stop-color="#39C3DD"/>
</linearGradient>
<linearGradient id="paint68_linear" x1="733.842" y1="416.071" x2="756.109" y2="416.071" gradientUnits="userSpaceOnUse">
<stop stop-color="#2697C4"/>
<stop offset="1" stop-color="#39C3DD"/>
</linearGradient>
<linearGradient id="paint69_linear" x1="750.555" y1="411.987" x2="783.23" y2="411.987" gradientUnits="userSpaceOnUse">
<stop stop-color="#2697C4"/>
<stop offset="1" stop-color="#39C3DD"/>
</linearGradient>
<linearGradient id="paint70_linear" x1="777.379" y1="427.357" x2="805.133" y2="427.357" gradientUnits="userSpaceOnUse">
<stop stop-color="#2697C4"/>
<stop offset="1" stop-color="#39C3DD"/>
</linearGradient>
<linearGradient id="paint71_linear" x1="733.839" y1="531.23" x2="794.39" y2="531.23" gradientUnits="userSpaceOnUse">
<stop stop-color="#2697C4"/>
<stop offset="1" stop-color="#39C3DD"/>
</linearGradient>
<linearGradient id="paint72_linear" x1="699.859" y1="656.399" x2="757.529" y2="656.399" gradientUnits="userSpaceOnUse">
<stop stop-color="#2697C4"/>
<stop offset="1" stop-color="#39C3DD"/>
</linearGradient>
<linearGradient id="paint73_linear" x1="699.859" y1="503.557" x2="757.15" y2="503.557" gradientUnits="userSpaceOnUse">
<stop stop-color="#2697C4"/>
<stop offset="1" stop-color="#39C3DD"/>
</linearGradient>
<linearGradient id="paint74_linear" x1="699.861" y1="554.377" x2="743.119" y2="554.377" gradientUnits="userSpaceOnUse">
<stop stop-color="#2697C4"/>
<stop offset="1" stop-color="#39C3DD"/>
</linearGradient>
<linearGradient id="paint75_linear" x1="699.207" y1="608.82" x2="729.189" y2="608.82" gradientUnits="userSpaceOnUse">
<stop stop-color="#2697C4"/>
<stop offset="1" stop-color="#39C3DD"/>
</linearGradient>
<linearGradient id="paint76_linear" x1="700.326" y1="663.74" x2="740.004" y2="663.74" gradientUnits="userSpaceOnUse">
<stop stop-color="#2697C4"/>
<stop offset="1" stop-color="#39C3DD"/>
</linearGradient>
<linearGradient id="paint77_linear" x1="700.327" y1="735.771" x2="727.049" y2="735.771" gradientUnits="userSpaceOnUse">
<stop stop-color="#2697C4"/>
<stop offset="1" stop-color="#39C3DD"/>
</linearGradient>
<linearGradient id="paint78_linear" x1="699.863" y1="783.103" x2="725.52" y2="783.103" gradientUnits="userSpaceOnUse">
<stop stop-color="#2697C4"/>
<stop offset="1" stop-color="#39C3DD"/>
</linearGradient>
<linearGradient id="paint79_linear" x1="772.841" y1="576.062" x2="793.199" y2="576.062" gradientUnits="userSpaceOnUse">
<stop stop-color="#2697C4"/>
<stop offset="1" stop-color="#39C3DD"/>
</linearGradient>
<linearGradient id="paint80_linear" x1="771.997" y1="512.139" x2="787.902" y2="512.139" gradientUnits="userSpaceOnUse">
<stop stop-color="#2697C4"/>
<stop offset="1" stop-color="#39C3DD"/>
</linearGradient>
<linearGradient id="paint81_linear" x1="772.274" y1="544.258" x2="791.948" y2="544.258" gradientUnits="userSpaceOnUse">
<stop stop-color="#2697C4"/>
<stop offset="1" stop-color="#39C3DD"/>
</linearGradient>
<linearGradient id="paint82_linear" x1="733.84" y1="467.265" x2="786.676" y2="467.265" gradientUnits="userSpaceOnUse">
<stop stop-color="#2697C4"/>
<stop offset="1" stop-color="#39C3DD"/>
</linearGradient>
<linearGradient id="paint83_linear" x1="762.337" y1="360.555" x2="797.705" y2="360.555" gradientUnits="userSpaceOnUse">
<stop stop-color="#2697C4"/>
<stop offset="1" stop-color="#39C3DD"/>
</linearGradient>
<linearGradient id="paint84_linear" x1="764.198" y1="367.691" x2="803.104" y2="367.691" gradientUnits="userSpaceOnUse">
<stop stop-color="#2697C4"/>
<stop offset="1" stop-color="#39C3DD"/>
</linearGradient>
<linearGradient id="paint85_linear" x1="762.339" y1="396.685" x2="776.715" y2="396.685" gradientUnits="userSpaceOnUse">
<stop stop-color="#2697C4"/>
<stop offset="1" stop-color="#39C3DD"/>
</linearGradient>
<linearGradient id="paint86_linear" x1="766.423" y1="379.576" x2="807.557" y2="379.576" gradientUnits="userSpaceOnUse">
<stop stop-color="#2697C4"/>
<stop offset="1" stop-color="#39C3DD"/>
</linearGradient>
<linearGradient id="paint87_linear" x1="767.167" y1="374.468" x2="793.058" y2="374.468" gradientUnits="userSpaceOnUse">
<stop stop-color="#2697C4"/>
<stop offset="1" stop-color="#39C3DD"/>
</linearGradient>
<linearGradient id="paint88_linear" x1="644.685" y1="247.266" x2="704.772" y2="247.266" gradientUnits="userSpaceOnUse">
<stop stop-color="#2697C4"/>
<stop offset="1" stop-color="#39C3DD"/>
</linearGradient>
<linearGradient id="paint89_linear" x1="699.277" y1="247.266" x2="759.364" y2="247.266" gradientUnits="userSpaceOnUse">
<stop stop-color="#2697C4"/>
<stop offset="1" stop-color="#39C3DD"/>
</linearGradient>
<linearGradient id="paint90_linear" x1="699.007" y1="744.959" x2="705.011" y2="744.959" gradientUnits="userSpaceOnUse">
<stop stop-color="#2697C4"/>
<stop offset="1" stop-color="#39C3DD"/>
</linearGradient>
<linearGradient id="paint91_linear" x1="587.016" y1="126.002" x2="735.994" y2="126.002" gradientUnits="userSpaceOnUse">
<stop stop-color="#009CCE"/>
<stop offset="1" stop-color="#00CCEA"/>
</linearGradient>
<linearGradient id="paint92_linear" x1="118.908" y1="277.692" x2="146.379" y2="247.022" gradientUnits="userSpaceOnUse">
<stop stop-color="#2697C4"/>
<stop offset="1" stop-color="#39C3DD"/>
</linearGradient>
<linearGradient id="paint93_linear" x1="102.311" y1="716.651" x2="99.4696" y2="736.368" gradientUnits="userSpaceOnUse">
<stop stop-color="#2697C4"/>
<stop offset="1" stop-color="#39C3DD"/>
</linearGradient>
<linearGradient id="paint94_linear" x1="1097.05" y1="91.7337" x2="1557.55" y2="91.7337" gradientUnits="userSpaceOnUse">
<stop stop-color="#009CCE"/>
<stop offset="1" stop-color="#00CCEA"/>
</linearGradient>
</defs>
</svg>
