<svg width="50" height="50" viewBox="0 0 50 50" fill="none" xmlns="http://www.w3.org/2000/svg">
<path d="M0 0V50H50V0H0ZM35.1562 27.8125C37.1875 29.6875 37.6562 30.625 37.6562 30.7813C38.4375 32.1875 36.7188 32.3438 36.7188 32.3438H33.2812C33.2812 32.3438 32.5 32.5 31.5625 31.875C30.3125 30.9375 29.0625 28.75 28.125 29.0625C27.1875 29.375 27.1875 31.4062 27.1875 31.4062C27.1875 31.4062 27.1875 31.875 27.0312 32.0312C26.7187 32.3438 26.25 32.3438 26.25 32.3438H24.6875C24.6875 32.3438 21.25 32.5 18.2812 29.375C15 25.9375 12.1875 19.2188 12.1875 19.2188C12.1875 19.2188 12.0312 18.75 12.1875 18.5938C12.3438 18.2812 12.9688 18.2812 12.9688 18.2812H16.7188C16.7188 18.2812 17.0312 18.2812 17.3438 18.5938C17.5 18.75 17.6562 19.0625 17.6562 19.0625C17.6562 19.0625 18.2812 20.625 19.0625 21.875C20.625 24.5312 21.25 25.1562 21.875 24.8438C22.6562 24.375 22.3438 21.0938 22.3438 21.0938C22.3438 21.0938 22.3438 19.8438 22.0312 19.375C21.7188 18.9062 21.0938 18.9062 20.9375 18.75C20.7812 18.75 21.0938 18.2812 21.5625 17.9688C22.1875 17.6562 23.4375 17.6562 24.8438 17.6562C25.9375 17.6562 26.25 17.6562 26.7188 17.8125C27.9688 18.125 27.5 19.375 27.5 22.1875C27.5 23.125 27.3438 24.375 27.9688 24.8438C28.2812 25 28.9062 24.8438 30.625 21.875C31.4062 20.4688 32.0312 18.9062 32.0312 18.9062C32.0312 18.9062 32.1875 18.5938 32.3438 18.4375C32.5 18.2812 32.8125 18.2812 32.8125 18.2812H36.7188C36.7188 18.2812 37.8125 18.125 38.125 18.5938C38.2812 19.2188 37.6562 20.4688 36.0938 22.5C33.2812 26.0938 32.9688 25.7812 35.1562 27.8125Z" fill="white"/>
</svg>
