<svg width="50" height="50" viewBox="0 0 50 50" fill="none" xmlns="http://www.w3.org/2000/svg">
<path d="M22.3438 28.2812L29.2188 24.6875L22.3438 21.25V28.2812Z" fill="white"/>
<path d="M0 0V50H50V0H0ZM37.5 25.9375C37.5 27.9688 37.1875 30 37.1875 30C37.1875 30 36.875 31.7187 36.25 32.5C35.3125 33.4375 34.2188 33.4375 33.75 33.5938C30.3125 33.9062 25 33.9062 25 33.9062C25 33.9062 18.4375 33.9062 16.5625 33.5938C15.9375 33.4375 14.6875 33.5938 13.75 32.5C12.9688 31.7187 12.8125 30 12.8125 30C12.8125 30 12.5 27.9688 12.5 25.9375V24.0625C12.5 22.0312 12.8125 20 12.8125 20C12.8125 20 13.125 18.2812 13.75 17.5C14.6875 16.5625 15.7812 16.5625 16.25 16.4062C19.6875 16.0938 25 16.0938 25 16.0938C25 16.0938 30.3125 16.0938 33.75 16.4062C34.2188 16.4062 35.3125 16.4062 36.25 17.5C37.0312 18.2812 37.1875 20 37.1875 20C37.1875 20 37.5 22.0312 37.5 24.0625V25.9375Z" fill="white"/>
</svg>
